<svg width="41" height="40" viewBox="0 0 41 40" fill="none" xmlns="http://www.w3.org/2000/svg">
<g clip-path="url(#clip0_1416_20783)">
<path d="M0.572266 20C0.572266 8.95431 9.52657 0 20.5723 0C31.618 0 40.5723 8.95431 40.5723 20C40.5723 31.0457 31.618 40 20.5723 40C9.52657 40 0.572266 31.0457 0.572266 20Z" fill="#EBF6FF"/>
<path d="M5.47382 37.2051C6.06859 30.494 12.6013 26.7313 20.5725 26.7313C28.5438 26.7313 35.0765 30.494 35.6713 37.2051H35.7154V46.7385H5.42969V37.2051H5.47382Z" fill="#485585"/>
<path d="M15.7051 21.7146H24.8691V26.286C24.8691 28.8108 22.8118 30.8575 20.2871 30.8575C17.7624 30.8575 15.7051 28.8108 15.7051 26.286V21.7146Z" fill="#FDCDC5"/>
<path fill-rule="evenodd" clip-rule="evenodd" d="M24.8691 25.1916C23.996 26.8042 22.5554 27.8574 20.9259 27.8574H19.4791C17.9509 27.8574 16.5887 26.931 15.7051 25.4855V22.0003H24.8691V25.1916Z" fill="#FBACA3"/>
<path d="M16.0872 8.47075C13.7474 9.69868 13.5568 9.72145 13.0924 11.9951C12.628 14.2687 13.6638 18.4288 13.6638 18.4288H26.7165C26.7165 18.4288 27.7324 13.8675 27.288 11.9951C26.8435 10.1227 25.9442 9.43582 24.3511 8.47075C23.8051 8.13999 23.1446 7.84238 22.5123 7.59406C21.0166 7.00676 19.3617 7.00379 17.88 7.62539C17.344 7.85025 16.7379 8.12925 16.0872 8.47075Z" fill="black"/>
<path fill-rule="evenodd" clip-rule="evenodd" d="M13.816 14.7313C13.816 13.469 14.8394 12.4456 16.1017 12.4456H23.8991C25.1615 12.4456 26.1848 13.469 26.1848 14.7313V16.5607C26.7928 15.9907 27.6358 15.7869 28.3602 16.1119C29.3657 16.5631 29.7618 17.8626 29.245 19.0143C28.7281 20.166 27.494 20.7339 26.4886 20.2827C26.3801 20.234 26.2787 20.1755 26.1848 20.1083V21.0556C26.1848 23.5803 24.1381 25.627 21.6134 25.627H18.3874C15.8627 25.627 13.816 23.5803 13.816 21.0556V20.1723C13.75 20.2132 13.6807 20.2502 13.6083 20.2827C12.6028 20.7339 11.3687 20.166 10.8519 19.0143C10.335 17.8626 10.7312 16.5631 11.7366 16.1119C12.4236 15.8037 13.2173 15.9711 13.816 16.4754V14.7313Z" fill="#FDCDC5"/>
<path d="M14.3887 13.0371C14.3887 11.7748 15.412 10.7514 16.6744 10.7514H23.326C24.5884 10.7514 25.6118 11.7748 25.6118 13.0371V20.0164C25.6118 23.1155 23.0994 25.6279 20.0002 25.6279C16.901 25.6279 14.3887 23.1155 14.3887 20.0164V13.0371Z" fill="#FDCDC5"/>
<circle cx="16.8624" cy="16.0011" r="0.571429" fill="black"/>
<circle cx="23.1476" cy="16.0011" r="0.571429" fill="black"/>
<path d="M26.6621 17.5443C26.8358 16.9364 28.2036 16.7627 28.6378 17.5443" stroke="black" stroke-width="0.285714" stroke-linecap="round"/>
<path d="M26.8611 17.2618C27.2226 16.9816 27.8825 17.3883 27.8094 17.9076" stroke="black" stroke-width="0.285714" stroke-linecap="round"/>
<path d="M13.3398 17.5443C13.1662 16.9364 11.7984 16.7627 11.3641 17.5443" stroke="black" stroke-width="0.285714" stroke-linecap="round"/>
<path d="M13.1409 17.2618C12.7793 16.9816 12.1194 17.3883 12.1925 17.9076" stroke="black" stroke-width="0.285714" stroke-linecap="round"/>
<path d="M20.0875 17.7146C19.7066 18.1908 19.2875 19.1432 20.659 19.1432" stroke="black" stroke-width="0.571429"/>
<path d="M20.8477 21.4266C20.7213 21.4197 20.5014 21.4111 20.0742 21.4111C19.6471 21.4111 19.4457 21.4194 19.3008 21.4266" stroke="black" stroke-width="0.285714" stroke-linecap="round"/>
<rect x="22.0703" y="14.3385" width="2.05923" height="0.772225" rx="0.386112" fill="black"/>
<rect x="15.7051" y="14.3385" width="2.05923" height="0.772225" rx="0.386112" fill="black"/>
<ellipse cx="24.1758" cy="18.2858" rx="1.42857" ry="1.14286" transform="rotate(-30 24.1758 18.2858)" fill="#FBACA3"/>
<ellipse rx="1.42857" ry="1.14286" transform="matrix(-0.866025 -0.5 -0.5 0.866025 15.625 18.2858)" fill="#FBACA3"/>
<circle cx="20.0006" cy="25.8221" r="0.89321" fill="#FBACA3"/>
<path fill-rule="evenodd" clip-rule="evenodd" d="M22.0443 6.4291C21.9969 6.42803 21.9494 6.42749 21.9018 6.42749C20.9352 6.42749 20.0203 6.64875 19.205 7.04338C19.3083 6.94427 19.415 6.8487 19.525 6.75686C19.4077 6.75025 19.2895 6.7469 19.1706 6.7469C16.6629 6.7469 14.5031 8.23611 13.5273 10.3784H21.9546C21.9426 10.2412 21.9365 10.1023 21.9365 9.96204C21.9365 8.88954 22.2935 7.90042 22.8951 7.10702C22.859 7.10621 22.8227 7.1058 22.7864 7.1058C22.3407 7.1058 21.9094 7.16745 21.5005 7.28268C21.6588 6.98276 21.8409 6.69739 22.0443 6.4291Z" fill="black"/>
<rect x="19.6133" y="21.7034" width="0.921462" height="0.639707" rx="0.319854" fill="#FBACA3"/>
</g>
<defs>
<clipPath id="clip0_1416_20783">
<path d="M0.572266 20C0.572266 8.95431 9.52657 0 20.5723 0C31.618 0 40.5723 8.95431 40.5723 20C40.5723 31.0457 31.618 40 20.5723 40C9.52657 40 0.572266 31.0457 0.572266 20Z" fill="white"/>
</clipPath>
</defs>
</svg>
