<svg width="41" height="40" viewBox="0 0 41 40" fill="none" xmlns="http://www.w3.org/2000/svg">
<g clip-path="url(#clip0_1416_20775)">
<path d="M0.857422 20C0.857422 8.95431 9.81173 0 20.8574 0C31.9031 0 40.8574 8.95431 40.8574 20C40.8574 31.0457 31.9031 40 20.8574 40C9.81173 40 0.857422 31.0457 0.857422 20Z" fill="#ECE8FF"/>
<path d="M4.13871 34.7263C4.79728 29.7104 12.0306 25.7592 20.8568 25.7592C29.683 25.7592 36.9163 29.7104 37.5749 34.7263H37.6238V40.7125H4.08984V34.7263H4.13871Z" fill="#1B2559"/>
<path d="M15.7617 21.7146H25.3817V26.0474C25.3817 28.7039 23.2282 30.8575 20.5717 30.8575C17.9152 30.8575 15.7617 28.7039 15.7617 26.0475V21.7146Z" fill="#FDCDC5"/>
<path fill-rule="evenodd" clip-rule="evenodd" d="M25.3344 23.611C24.622 25.8559 22.9671 27.4291 21.0393 27.4291H19.6387C18.0545 27.4291 16.6546 26.3667 15.8105 24.7421V21.1434H25.3344V23.611Z" fill="#FBACA3"/>
<path fill-rule="evenodd" clip-rule="evenodd" d="M20.5611 5.77625C15.8375 5.77625 11.5246 8.36713 13.1914 15.5079L13.1443 17.4288C13.1443 17.7185 13.1603 18.0045 13.1914 18.2859H27.3829C27.4141 18.0045 27.43 17.7185 27.43 17.4288V15.5079C27.5061 15.1494 27.5643 14.7978 27.6055 14.4536H27.3585V14.2182H27.6311C27.6389 14.1393 27.6457 14.0607 27.6516 13.9826H27.3585V13.7472H27.6669C27.6711 13.6682 27.6745 13.5897 27.6768 13.5116H27.3585V13.2762H27.6813C27.7143 8.75289 24.6456 5.77625 20.5611 5.77625Z" fill="black"/>
<path fill-rule="evenodd" clip-rule="evenodd" d="M13.8579 13.6275C13.8579 10.7872 16.1604 8.48468 19.0007 8.48468H21.8579C24.6982 8.48468 27.0007 10.7872 27.0007 13.6275V15.6398C27.3977 15.3941 27.8497 15.3047 28.283 15.4253C29.2457 15.6933 29.7518 16.8964 29.4132 18.1125C29.0747 19.3287 28.0198 20.0973 27.0571 19.8293C27.0381 19.824 27.0193 19.8184 27.0007 19.8124C26.9982 21.6689 26.0938 23.4087 24.5754 24.4774L22.4931 25.943C22.1079 26.2141 21.6485 26.3596 21.1775 26.3596H19.381C18.8842 26.3596 18.401 26.1978 18.0044 25.8986L16.1307 24.4851C14.6994 23.4053 13.8579 21.7162 13.8579 19.9233V19.6675C13.7435 19.7376 13.6194 19.7923 13.4866 19.8293C12.5239 20.0973 11.469 19.3287 11.1305 18.1125C10.792 16.8964 11.298 15.6933 12.2607 15.4253C12.8138 15.2714 13.3973 15.4595 13.8579 15.878V13.6275Z" fill="#FDCDC5"/>
<ellipse cx="24.286" cy="18.286" rx="1.42857" ry="1.14286" fill="#FBACA3"/>
<ellipse cx="15.7157" cy="18.286" rx="1.42857" ry="1.14286" fill="#FBACA3"/>
<path d="M14.6155 14.858C14.6155 14.6213 14.8074 14.4294 15.0441 14.4294H19.6155C19.8522 14.4294 20.0441 14.6213 20.0441 14.858V16.0008C20.0441 16.8687 19.3405 17.5723 18.4727 17.5723H16.1869C15.3191 17.5723 14.6155 16.8687 14.6155 16.0008V14.858Z" stroke="black" stroke-width="0.285714"/>
<path d="M20.9007 14.858C20.9007 14.6213 21.0925 14.4294 21.3292 14.4294H25.9007C26.1374 14.4294 26.3292 14.6213 26.3292 14.858V16.0008C26.3292 16.8687 25.6257 17.5723 24.7578 17.5723H22.4721C21.6042 17.5723 20.9007 16.8687 20.9007 16.0008V14.858Z" stroke="black" stroke-width="0.285714"/>
<rect x="20.1855" y="14.858" width="0.571429" height="0.571429" fill="black"/>
<rect x="26.4727" y="14.858" width="0.571429" height="0.571429" fill="black"/>
<rect x="13.8398" y="14.858" width="0.631979" height="0.571429" fill="black"/>
<circle cx="17.1476" cy="15.4286" r="0.571429" fill="black"/>
<circle cx="23.4328" cy="15.4286" r="0.571429" fill="black"/>
<ellipse cx="23.2192" cy="13.453" rx="1.32267" ry="0.661333" fill="black"/>
<ellipse rx="1.32267" ry="0.661333" transform="matrix(1 0 0 -1 16.8461 13.4528)" fill="black"/>
<path d="M20.3727 17.7146C19.9917 18.1908 19.5727 19.1432 20.9441 19.1432" stroke="black" stroke-width="0.571429"/>
<path d="M23.2194 21.1432C22.7519 21.2588 21.9386 21.401 20.3587 21.401C18.7788 21.401 18.0341 21.2637 17.498 21.1432" stroke="black" stroke-width="0.285714" stroke-linecap="round"/>
<path fill-rule="evenodd" clip-rule="evenodd" d="M19.5286 7.22751C18.7841 6.50912 17.6353 6.49181 16.9627 7.18885C16.2902 7.88588 16.3485 9.03331 17.0931 9.7517C17.1039 9.76216 17.1148 9.77247 17.1259 9.78263C17.0714 9.44878 17.0752 9.05541 17.2631 8.77351C17.2631 9.34282 17.6427 9.91213 18.4017 10.2917C18.2499 9.6844 18.212 9.27956 18.212 9.15305C18.269 9.4076 18.5006 9.93885 18.9903 10.2119C19.0382 10.1958 19.0855 10.1776 19.1319 10.1573C19.0215 9.55708 19.1021 8.74642 19.1608 8.39397C19.4006 8.55381 19.7766 8.89033 19.9828 9.30787C20.278 8.63706 20.1192 7.79732 19.5286 7.22751Z" fill="black"/>
<path d="M22.5632 4.50542C22.0749 4.37566 21.4905 4.50455 21.1754 4.82318C20.8602 5.14181 21.1033 5.34411 21.4219 5.65928L22.5632 4.50542Z" fill="black"/>
<path d="M22.8113 5.0623C22.323 4.93255 21.7386 5.06143 21.4234 5.38007C21.1082 5.6987 21.3513 5.90099 21.6699 6.21617L22.8113 5.0623Z" fill="black"/>
<path opacity="0.5" fill-rule="evenodd" clip-rule="evenodd" d="M22.3712 26.0245C22.0135 26.2426 21.6019 26.3588 21.181 26.3588H19.3845C19.0323 26.3588 18.6869 26.2774 18.3744 26.1235C18.3466 26.0525 18.332 25.979 18.332 25.9037C18.332 25.31 19.2391 24.8287 20.3579 24.8287C21.4768 24.8287 22.3838 25.31 22.3838 25.9037C22.3838 25.9445 22.3795 25.9848 22.3712 26.0245Z" fill="#C4C4C4"/>
<path d="M27.5423 17.3589C27.6286 17.8767 27.1672 18.6227 26.9258 18.931L26.9898 15.3552H27.2394C27.3678 15.8073 27.456 16.841 27.5423 17.3589Z" fill="black"/>
<path d="M13.3054 17.6379C13.2191 18.1557 13.6804 18.9017 13.9219 19.21L13.8579 15.6342H13.6083C13.4799 16.0863 13.3917 17.12 13.3054 17.6379Z" fill="black"/>
<path fill-rule="evenodd" clip-rule="evenodd" d="M24.7457 8.99892C25.2863 8.75605 25.5994 8.4298 25.5994 8.00257C25.5994 6.80769 23.1497 4.80499 20.1278 4.80499C17.106 4.80499 14.6562 6.80769 14.6562 8.00257C14.6562 8.48108 15.0491 8.83293 15.7143 9.08281C16.1297 8.20765 18.0035 7.54718 20.2523 7.54718C22.4287 7.54718 24.2539 8.16578 24.7457 8.99892Z" fill="black"/>
<path d="M21.1774 4.82572L20.9451 5.06529C20.9356 4.97185 20.8709 4.89328 20.7809 4.86621L20.6465 4.82572L20.9451 4.77264L21.1774 4.82572Z" fill="#ECE8FF"/>
<path d="M27.1363 17.1433C27.0228 16.625 27.9859 15.9311 28.6285 16.3252" stroke="black" stroke-width="0.285714" stroke-linecap="round"/>
<path d="M13.5433 17.1433C13.6569 16.625 12.6937 15.9311 12.0512 16.3252" stroke="black" stroke-width="0.285714" stroke-linecap="round"/>
<path d="M27.4637 16.5527C27.7721 16.4986 28.1248 16.6609 28.1248 17.1427" stroke="black" stroke-width="0.285714" stroke-linecap="round"/>
<path d="M13.2179 16.5527C12.9096 16.4986 12.5568 16.6609 12.5568 17.1427" stroke="black" stroke-width="0.285714" stroke-linecap="round"/>
</g>
<defs>
<clipPath id="clip0_1416_20775">
<path d="M0.857422 20C0.857422 8.95431 9.81173 0 20.8574 0C31.9031 0 40.8574 8.95431 40.8574 20C40.8574 31.0457 31.9031 40 20.8574 40C9.81173 40 0.857422 31.0457 0.857422 20Z" fill="white"/>
</clipPath>
</defs>
</svg>
