<svg width="41" height="40" viewBox="0 0 41 40" fill="none" xmlns="http://www.w3.org/2000/svg">
<g clip-path="url(#clip0_1416_20778)">
<path d="M0.427734 20C0.427734 8.95431 9.38204 0 20.4277 0C31.4734 0 40.4277 8.95431 40.4277 20C40.4277 31.0457 31.4734 40 20.4277 40C9.38204 40 0.427734 31.0457 0.427734 20Z" fill="#ECE8FF"/>
<path d="M20.4275 27.8406C12.6935 27.8406 6.42383 33.6953 6.42383 40.9174L20.4275 44.92L34.4312 40.9174C34.4312 33.6953 28.1616 27.8406 20.4275 27.8406Z" fill="#A18BFF"/>
<path d="M17.2852 25.0873H22.9994V29.8435C22.9994 31.4215 21.7203 32.7006 20.1423 32.7006C18.5643 32.7006 17.2852 31.4215 17.2852 29.8435V25.0873Z" fill="#FDCDC5"/>
<path fill-rule="evenodd" clip-rule="evenodd" d="M22.9994 25.7243C22.3467 26.4872 21.5358 26.9391 20.6573 26.9391H19.4846C18.669 26.9391 17.9117 26.5496 17.2852 25.8834V25.0876H22.9994V25.7243Z" fill="#FBACA3"/>
<ellipse cx="14.8774" cy="12.2869" rx="2.97927" ry="6.07738" transform="rotate(33.7392 14.8774 12.2869)" fill="black"/>
<ellipse rx="3.81091" ry="6.47945" transform="matrix(-0.834528 0.550966 0.550966 0.834528 23.8916 12.2148)" fill="black"/>
<path fill-rule="evenodd" clip-rule="evenodd" d="M13.8351 15.3856C13.8351 12.0799 16.5149 9.40009 19.8206 9.40009C23.1263 9.40009 25.8061 12.0799 25.8061 15.3856V17.321C26.4266 16.9263 27.1893 16.8515 27.8295 17.1938C28.8223 17.7246 29.1446 19.0574 28.5494 20.1706C27.9605 21.2719 26.6944 21.7458 25.7062 21.2419C25.3711 23.0093 24.2144 24.541 22.5534 25.3339L21.2976 25.9334C20.3634 26.3793 19.2778 26.3793 18.3436 25.9334L17.0878 25.3339C15.4287 24.542 14.2727 23.0129 13.9362 21.2481C12.9497 21.7418 11.6916 21.2673 11.1053 20.1706C10.5101 19.0574 10.8324 17.7246 11.8252 17.1938C12.4607 16.854 13.217 16.9252 13.8351 17.3125L13.8351 15.3856Z" fill="#FDCDC5"/>
<circle cx="16.7121" cy="17.7968" r="0.571429" fill="black"/>
<circle cx="22.9972" cy="17.7968" r="0.571429" fill="black"/>
<ellipse cx="23.8483" cy="19.7782" rx="1.62073" ry="1.29658" transform="rotate(-18.4635 23.8483 19.7782)" fill="#FBACA3"/>
<ellipse rx="1.62073" ry="1.29658" transform="matrix(-0.948526 -0.3167 -0.3167 0.948526 15.9271 19.7782)" fill="#FBACA3"/>
<ellipse cx="22.7223" cy="15.6858" rx="1.32267" ry="0.330659" transform="rotate(-8.52695 22.7223 15.6858)" fill="black"/>
<ellipse rx="1.32267" ry="0.330659" transform="matrix(-0.988946 -0.148275 -0.148275 0.988946 16.5199 15.6858)" fill="black"/>
<path d="M19.8551 18.6375C19.4742 19.1137 19.0551 20.0661 20.4265 20.0661" stroke="black" stroke-width="0.571429"/>
<ellipse cx="19.1881" cy="9.65213" rx="0.144832" ry="1.44065" transform="rotate(-10.4162 19.1881 9.65213)" fill="#FDCDC5"/>
<path d="M21.0216 22.1554C20.8474 22.2187 20.5442 22.2965 19.9552 22.2965C19.3662 22.2965 19.0885 22.2214 18.8887 22.1554" stroke="black" stroke-width="0.285714" stroke-linecap="round"/>
<path fill-rule="evenodd" clip-rule="evenodd" d="M20.5516 13.8404L20.5516 13.8405L20.5518 13.8408C20.6179 13.9773 20.6825 14.1108 20.7438 14.2436C20.5725 13.3914 20.4987 12.5463 20.4835 11.7584C20.8162 12.2557 21.2361 12.7593 21.7306 13.2365C22.257 13.7443 22.8102 14.1666 23.3504 14.4896L24.1545 14.8545C23.6271 14.3535 22.9137 12.9404 23.0201 12.4912C23.3747 13.4605 24.3431 14.3805 25.1051 15.0316C25.0825 14.9275 25.0628 14.8323 25.0444 14.7431C24.9457 14.2651 24.883 13.9618 24.5832 13.4032C25.1051 13.9868 25.4588 14.6551 25.6077 15.2124L25.837 14.0822L26.1237 15.1248C26.2699 15.0667 26.3977 14.9835 26.5035 14.8739C27.3225 14.025 26.5135 11.9157 24.6966 10.1626C23.3396 8.85328 21.8042 8.11293 20.7726 8.17557C20.797 8.03423 20.819 7.91476 20.8365 7.81984L20.8366 7.81976V7.81976L20.8402 7.79993L19.9072 7.7179C19.8299 8.1071 19.7708 8.4712 19.7278 8.8127C19.6941 8.88529 19.6674 8.96283 19.6476 9.04483L19.5306 9.01978C19.4802 8.82733 19.3911 8.6603 19.2608 8.5252C18.4418 7.67637 16.3049 8.40945 14.4879 10.1626C12.671 11.9157 11.862 14.025 12.681 14.8739C12.7868 14.9835 12.9146 15.0667 13.0608 15.1248L13.3475 14.0822L13.5768 15.2124C13.7257 14.6551 14.0793 13.9868 14.6013 13.4032C14.3015 13.9618 14.2388 14.2651 14.1401 14.7431L14.1401 14.7431C14.1217 14.8323 14.102 14.9275 14.0793 15.0316C14.8413 14.3805 15.8098 13.4605 16.1644 12.4912C16.2708 12.9404 15.5574 14.3535 15.03 14.8545L15.8341 14.4896C16.3743 14.1666 16.9275 13.7443 17.4539 13.2365C17.9849 12.7241 18.4298 12.1813 18.7732 11.6484C18.4609 13.0066 17.9209 14.6555 16.9689 16.2107C17.1004 16.0858 17.2367 15.9615 17.3761 15.8345C18.2597 15.0293 19.2645 14.1136 19.9039 12.2477C20.0828 12.8724 20.3256 13.3737 20.5516 13.8404Z" fill="black"/>
<path fill-rule="evenodd" clip-rule="evenodd" d="M25.9202 10.637C25.8277 8.22619 23.9022 6.30103 21.5404 6.30103C20.6744 6.30103 19.8671 6.55987 19.1872 7.00658C18.7734 6.8731 18.3332 6.80116 17.8766 6.80116C15.6807 6.80116 13.8619 8.46546 13.543 10.637H25.9202Z" fill="black"/>
<path d="M25.6836 18.9983L25.8095 17.1009C26.0022 17.0819 26.2372 16.6204 26.463 16.597C26.9264 16.5489 27.3221 16.9422 27.0299 16.9591C26.5953 16.9843 25.9513 18.3291 25.6836 18.9983Z" fill="black"/>
<path d="M13.959 18.9983L13.833 17.1009C13.6404 17.0819 13.4054 16.6204 13.1795 16.597C12.7162 16.5489 12.3205 16.9422 12.6127 16.9591C13.0473 16.9843 13.6913 18.3291 13.959 18.9983Z" fill="black"/>
<path d="M26.3117 18.9982C26.2544 18.3685 27.4675 17.7131 28.1544 18.2855" stroke="black" stroke-width="0.285714" stroke-linecap="round"/>
<path d="M26.3952 18.6629C26.6313 18.2711 27.3935 18.4125 27.5127 18.9231" stroke="black" stroke-width="0.285714" stroke-linecap="round"/>
<path d="M13.3543 18.9982C13.4116 18.3685 12.1985 17.7131 11.5116 18.2855" stroke="black" stroke-width="0.285714" stroke-linecap="round"/>
<path d="M13.2708 18.6629C13.0347 18.2711 12.2725 18.4125 12.1533 18.9231" stroke="black" stroke-width="0.285714" stroke-linecap="round"/>
<path d="M20.4198 6.06048L19.1285 8.46945C18.7945 8.07372 18.7436 7.43414 19.0441 6.87366C19.3445 6.31314 19.9053 6.00139 20.4198 6.06048Z" fill="black"/>
<path d="M18.5265 6.33304L19.0154 7.2452C19.1721 7.0792 19.213 6.82537 19.0993 6.61314C18.9855 6.4009 18.7514 6.29451 18.5265 6.33304Z" fill="black"/>
</g>
<defs>
<clipPath id="clip0_1416_20778">
<path d="M0.427734 20C0.427734 8.95431 9.38204 0 20.4277 0C31.4734 0 40.4277 8.95431 40.4277 20C40.4277 31.0457 31.4734 40 20.4277 40C9.38204 40 0.427734 31.0457 0.427734 20Z" fill="white"/>
</clipPath>
</defs>
</svg>
