<svg width="41" height="40" viewBox="0 0 41 40" fill="none" xmlns="http://www.w3.org/2000/svg">
<g clip-path="url(#clip0_1416_20780)">
<path d="M0.142578 20C0.142578 8.95431 9.09688 0 20.1426 0C31.1883 0 40.1426 8.95431 40.1426 20C40.1426 31.0457 31.1883 40 20.1426 40C9.09688 40 0.142578 31.0457 0.142578 20Z" fill="#E8FFEA"/>
<path d="M11.2853 14.0665C10.7139 10.6379 12.3842 5.38336 19.3006 5.38336C24.9556 5.38336 28.5504 8.71655 27.8884 14.0665L27.317 18.0665C27.317 18.3562 27.301 18.6422 27.2699 18.9237H11.9355C11.9044 18.6422 11.8884 18.3562 11.8884 18.0665C11.8884 18.0665 11.8568 17.4951 11.2853 14.0665Z" fill="black"/>
<path d="M20.1417 27.2093C13.0477 27.2093 7.29688 33.6394 7.29688 41.5714L20.1417 45.9675L32.9866 41.5714C32.9866 33.6394 27.2357 27.2093 20.1417 27.2093Z" fill="#7BE188"/>
<path d="M17 25.495H22.7143V27.2093C22.7143 28.7872 21.4351 30.0664 19.8571 30.0664C18.2792 30.0664 17 28.7872 17 27.2093V25.495Z" fill="#FDCDC5"/>
<path fill-rule="evenodd" clip-rule="evenodd" d="M22.7143 25.6359C22.0374 26.4519 21.1833 26.9386 20.2551 26.9386H19.0612C18.3067 26.9386 17.6012 26.617 17 26.0584V25.4944H22.7143V25.6359Z" fill="#FBACA3"/>
<path fill-rule="evenodd" clip-rule="evenodd" d="M12.9989 15.4953C12.9989 11.866 15.941 8.92383 19.5703 8.92383C23.1996 8.92383 26.1417 11.866 26.1417 15.4953V17.2296C26.4779 17.0351 26.8683 16.9238 27.2846 16.9238C28.547 16.9238 29.5703 17.9472 29.5703 19.2095C29.5703 20.4719 28.547 21.4953 27.2846 21.4953C26.8449 21.4953 26.4342 21.3711 26.0857 21.156C25.6951 23.9314 23.3106 26.0667 20.4275 26.0667H18.7132C15.83 26.0667 13.4455 23.9314 13.0549 21.156C12.7064 21.3711 12.2957 21.4953 11.856 21.4953C10.5937 21.4953 9.57031 20.4719 9.57031 19.2095C9.57031 17.9472 10.5937 16.9238 11.856 16.9238C12.2724 16.9238 12.6627 17.0351 12.9989 17.2296V15.4953Z" fill="#FDCDC5"/>
<ellipse cx="23.1931" cy="11.3708" rx="4.57162" ry="2.13575" transform="rotate(-136.024 23.1931 11.3708)" fill="black"/>
<ellipse rx="4.57162" ry="2.13575" transform="matrix(0.719632 -0.694356 -0.694356 -0.719632 15.9514 11.3708)" fill="black"/>
<path d="M20.7232 13.915C20.1056 12.5751 19.1371 11.1612 19.8866 7.38923L20.8196 7.47126C20.6697 8.28528 20.1495 11.0603 20.7232 13.915Z" fill="black"/>
<path d="M16.9486 15.882C18.2736 14.6237 20.0995 13.4209 20.4689 8.89643L19.1787 8.62009C19.083 9.59184 18.7691 12.9082 16.9486 15.882Z" fill="black"/>
<path fill-rule="evenodd" clip-rule="evenodd" d="M17.5064 8.11448C16.3574 8.75025 14.9434 8.39361 14.3482 7.3179C13.753 6.2422 14.2019 4.85477 15.351 4.219C15.3677 4.20976 15.3844 4.20073 15.4012 4.19769C15.2247 4.58327 15.1 5.06669 15.2376 5.47406C15.4249 4.77615 16.0774 4.20308 17.1328 3.98748C16.7469 4.68198 16.5672 5.16579 16.5256 5.32088C16.6792 5.02757 17.138 4.45251 17.8281 4.27889C17.8815 4.31432 17.9335 4.35215 17.9837 4.39235C17.6509 5.09185 17.4831 6.11213 17.4391 6.56352C17.7856 6.44643 18.3574 6.15756 18.7475 5.7135C18.8887 6.63295 18.4178 7.61018 17.5064 8.11448Z" fill="black"/>
<path fill-rule="evenodd" clip-rule="evenodd" d="M15.9081 11.6619C15.8891 10.1043 14.6916 8.85609 13.2334 8.87388C11.7752 8.89167 10.6085 10.1688 10.6275 11.7263C10.6278 11.749 10.6283 11.7716 10.6291 11.7941C10.9289 11.3824 11.3541 10.9698 11.855 10.8726C11.2455 11.4752 11.0377 12.4842 11.4349 13.6986C11.9244 12.8933 12.3176 12.4241 12.4531 12.2902C12.2408 12.6208 11.9172 13.4315 12.1435 14.2449C12.2113 14.2792 12.2807 14.3104 12.3514 14.3385C12.8771 13.5848 13.8306 12.8128 14.2702 12.5025C14.3528 12.9285 14.3906 13.6875 14.1618 14.3504C15.1923 13.9563 15.9232 12.8973 15.9081 11.6619Z" fill="black"/>
<path d="M22.4316 13.7546L22.7622 15.5507H25.2814L26.1061 14.8104L25.8158 13.7546L25.5865 14.8847C25.4376 14.3275 25.0839 13.6592 24.562 13.0756C24.9177 13.7383 24.9396 14.0417 25.0839 14.7039C24.3219 14.0528 23.3535 13.1328 22.9988 12.1635C22.8925 12.6127 23.6059 14.0259 24.1333 14.5269L22.4316 13.7546Z" fill="#FDCDC5"/>
<path d="M16.7109 13.7546L16.3804 15.5507H13.8612L13.0365 14.8104L13.3268 13.7546L13.5561 14.8847C13.705 14.3275 14.0586 13.6592 14.5806 13.0756C14.2248 13.7383 14.203 14.0417 14.0586 14.7039C14.8206 14.0528 15.7891 13.1328 16.1437 12.1635C16.2501 12.6127 15.5367 14.0259 15.0093 14.5269L16.7109 13.7546Z" fill="#FDCDC5"/>
<circle cx="16.4269" cy="17.2246" r="0.571429" fill="black"/>
<circle cx="22.7121" cy="17.2246" r="0.571429" fill="black"/>
<ellipse cx="23.9554" cy="19.2101" rx="1.42857" ry="1.14286" transform="rotate(-28.5497 23.9554 19.2101)" fill="#FBACA3"/>
<ellipse cx="15.3836" cy="19.2093" rx="1.42857" ry="1.14286" fill="#FBACA3"/>
<path d="M13.7151 16.654C13.7151 16.4173 13.907 16.2254 14.1437 16.2254H18.7151C18.9518 16.2254 19.1437 16.4173 19.1437 16.654V17.7969C19.1437 18.6647 18.4401 19.3683 17.5723 19.3683H15.2866C14.4187 19.3683 13.7151 18.6647 13.7151 17.7969V16.654Z" stroke="black" stroke-width="0.285714"/>
<path d="M20.0003 16.654C20.0003 16.4173 20.1922 16.2254 20.4289 16.2254H25.0003C25.237 16.2254 25.4289 16.4173 25.4289 16.654V17.7969C25.4289 18.6647 24.7253 19.3683 23.8574 19.3683H21.5717C20.7038 19.3683 20.0003 18.6647 20.0003 17.7969V16.654Z" stroke="black" stroke-width="0.285714"/>
<rect x="19.2852" y="16.654" width="0.571429" height="0.571429" fill="black"/>
<rect x="25.5723" y="16.654" width="0.571429" height="0.571429" fill="black"/>
<rect x="13" y="16.654" width="0.571429" height="0.571429" fill="black"/>
<ellipse cx="22.4612" cy="14.665" rx="1.32267" ry="0.661333" transform="rotate(10 22.4612 14.665)" fill="black"/>
<ellipse rx="1.32267" ry="0.661333" transform="matrix(-0.984808 0.173648 0.173648 0.984808 16.1306 14.665)" fill="black"/>
<path d="M19.57 18.6378C19.189 19.114 18.77 20.0664 20.1414 20.0664" stroke="black" stroke-width="0.571429"/>
<path d="M20.5529 22.3242C20.3786 22.2191 20.0754 22.09 19.4864 22.09C18.8974 22.09 18.6197 22.2148 18.4199 22.3242" stroke="black" stroke-width="0.285714" stroke-linecap="round"/>
<ellipse rx="0.207156" ry="0.554767" transform="matrix(-0.416719 0.909035 0.909035 0.416719 14.0234 6.81848)" fill="black"/>
<path d="M27.8155 9.2781C27.5507 8.97319 26.8982 8.48015 26.4064 8.94724L26.2769 9.35802L27.8155 9.2781Z" stroke="black" stroke-width="0.571429"/>
<path d="M26.7269 9.71873C26.9696 9.12879 27.8414 9.78705 28.0487 10.1337C28.0487 10.1337 26.4843 10.3087 26.7269 9.71873Z" fill="black"/>
<path d="M26.1071 5.38336L25.7209 6.37663L25.0035 5.65927C24.9483 6.22948 24.7055 7.27057 24.1758 6.87327" stroke="black" stroke-width="0.285714" stroke-linecap="round"/>
<path d="M12.3691 12.4425C11.9715 13.2778 11.0808 14.1593 10.986 13.6095C10.8913 13.0597 11.6393 13.8875 10.8039 14.2052C9.96852 14.5228 10.9937 13.2297 10.7049 14.5337C10.4738 15.5768 9.44115 14.6653 8.9537 14.0791" stroke="black" stroke-width="0.285714" stroke-linecap="round"/>
<ellipse cx="19.4867" cy="22.7808" rx="0.305081" ry="0.163016" fill="#FBACA3"/>
<path d="M26.3418 18.6472C26.5155 18.0393 27.8833 17.8656 28.3175 18.6472" stroke="black" stroke-width="0.285714" stroke-linecap="round"/>
<path d="M26.5407 18.3647C26.9023 18.0845 27.5622 18.4912 27.4891 19.0105" stroke="black" stroke-width="0.285714" stroke-linecap="round"/>
<path d="M12.6855 18.6472C12.5119 18.0393 11.1441 17.8656 10.7098 18.6472" stroke="black" stroke-width="0.285714" stroke-linecap="round"/>
<path d="M12.4866 18.3647C12.125 18.0845 11.4651 18.4912 11.5382 19.0105" stroke="black" stroke-width="0.285714" stroke-linecap="round"/>
</g>
<defs>
<clipPath id="clip0_1416_20780">
<path d="M0.142578 20C0.142578 8.95431 9.09688 0 20.1426 0C31.1883 0 40.1426 8.95431 40.1426 20C40.1426 31.0457 31.1883 40 20.1426 40C9.09688 40 0.142578 31.0457 0.142578 20Z" fill="white"/>
</clipPath>
</defs>
</svg>
