<svg width="41" height="40" viewBox="0 0 41 40" fill="none" xmlns="http://www.w3.org/2000/svg">
<g clip-path="url(#clip0_1416_20776)">
<path d="M0.714844 20C0.714844 8.95431 9.66915 0 20.7148 0C31.7605 0 40.7148 8.95431 40.7148 20C40.7148 31.0457 31.7605 40 20.7148 40C9.66915 40 0.714844 31.0457 0.714844 20Z" fill="#ECE8FF"/>
<path d="M12.4297 12.8575C12.4297 6.85747 15.0011 5.14319 21.2868 5.14319C25.5473 5.14319 27.8583 8.59699 27.8583 12.8575L27.2868 17.4289C27.2868 17.7186 27.2709 18.0046 27.2397 18.286H13.0482C13.0171 18.0046 13.0011 17.7186 13.0011 17.4289L12.4297 12.8575Z" fill="black"/>
<path d="M5.6164 34.1102C6.21117 29.0943 12.7439 25.1432 20.7151 25.1432C28.6864 25.1432 35.2191 29.0943 35.8138 34.1102H35.858V40.0965H5.57227V34.1102H5.6164Z" fill="#6946FF"/>
<path d="M14.7148 21.7146H26.1434V25.1432C26.1434 28.2991 23.585 30.8575 20.4291 30.8575C17.2732 30.8575 14.7148 28.2991 14.7148 25.1432V21.7146Z" fill="#FDCDC5"/>
<path fill-rule="evenodd" clip-rule="evenodd" d="M26.0858 23.611C25.2395 25.8559 23.2735 27.4291 20.9833 27.4291H19.3194C17.4373 27.4291 15.7742 26.3667 14.7715 24.7421V21.1434H26.0858V23.611Z" fill="#FBACA3"/>
<path fill-rule="evenodd" clip-rule="evenodd" d="M13.8337 13.6275C13.8337 10.7872 16.1362 8.48468 18.9766 8.48468H21.8337C24.674 8.48468 26.9766 10.7872 26.9766 13.6275V15.5183C27.248 15.4046 27.5461 15.3418 27.8588 15.3418C29.1212 15.3418 30.1445 16.3652 30.1445 17.6275C30.1445 18.8899 29.1212 19.9133 27.8588 19.9133C27.5461 19.9133 27.248 19.8504 26.9766 19.7368V19.8045C26.9766 21.664 26.0718 23.4072 24.5512 24.4774L22.4689 25.943C22.0838 26.2141 21.6243 26.3596 21.1533 26.3596H19.3568C18.8601 26.3596 18.3768 26.1978 17.9803 25.8986L16.1066 24.4851C14.6752 23.4053 13.8337 21.7162 13.8337 19.9233V19.4318C13.4464 19.7335 12.9593 19.9133 12.4302 19.9133C11.1679 19.9133 10.1445 18.8899 10.1445 17.6275C10.1445 16.3652 11.1679 15.3418 12.4302 15.3418C12.9593 15.3418 13.4464 15.5216 13.8337 15.8233V13.6275Z" fill="#FDCDC5"/>
<path d="M26.9922 16.979C27.1659 16.3711 28.5337 16.1974 28.9679 16.979" stroke="black" stroke-width="0.285714" stroke-linecap="round"/>
<path d="M27.1911 16.6965C27.5527 16.4163 28.2126 16.823 28.1395 17.3423" stroke="black" stroke-width="0.285714" stroke-linecap="round"/>
<path d="M13.3047 16.979C13.131 16.3711 11.7632 16.1974 11.329 16.979" stroke="black" stroke-width="0.285714" stroke-linecap="round"/>
<path d="M13.1057 16.6965C12.7442 16.4163 12.0843 16.823 12.1574 17.3423" stroke="black" stroke-width="0.285714" stroke-linecap="round"/>
<ellipse cx="19.1495" cy="9.00218" rx="2.82046" ry="2.64051" transform="rotate(-136.024 19.1495 9.00218)" fill="black"/>
<path d="M21.8571 11.4289C22.0857 10.286 21 9.23837 20.4286 8.85742C20.3333 9.42885 20.2 10.8003 20.4286 11.7146C19.5143 11.3638 19.0952 10.4256 19 10.0003C19 10.1908 19.0571 10.8003 19.2857 11.7146C18.1429 11.1431 17.5714 10.286 17.5714 9.42885C17.1143 10.1146 17.381 11.2384 17.5714 11.7146H17L17.2857 12.5717L21 12.0003C21.1905 12.286 21.6286 12.5717 21.8571 11.4289Z" fill="#FDCDC5"/>
<ellipse cx="24.1429" cy="18.2857" rx="1.42857" ry="1.14286" transform="rotate(-28.5497 24.1429 18.2857)" fill="#FBACA3"/>
<ellipse cx="15.5731" cy="18.286" rx="1.42857" ry="1.14286" fill="#FBACA3"/>
<path d="M14.2913 14.858C14.2913 14.6213 14.4832 14.4294 14.7199 14.4294H19.2913C19.528 14.4294 19.7199 14.6213 19.7199 14.858V16.0008C19.7199 16.8687 19.0163 17.5723 18.1484 17.5723H15.8627C14.9948 17.5723 14.2913 16.8687 14.2913 16.0008V14.858Z" stroke="black" stroke-width="0.285714"/>
<path d="M20.5765 14.858C20.5765 14.6213 20.7683 14.4294 21.005 14.4294H25.5765C25.8131 14.4294 26.005 14.6213 26.005 14.858V16.0008C26.005 16.8687 25.3015 17.5723 24.4336 17.5723H22.1479C21.28 17.5723 20.5765 16.8687 20.5765 16.0008V14.858Z" stroke="black" stroke-width="0.285714"/>
<rect x="19.8613" y="14.858" width="0.571429" height="0.571429" fill="black"/>
<rect x="26.1484" y="14.858" width="0.571429" height="0.571429" fill="black"/>
<rect x="13.5762" y="14.858" width="0.571429" height="0.571429" fill="black"/>
<circle cx="17.005" cy="15.4286" r="0.571429" fill="black"/>
<circle cx="23.2902" cy="15.4286" r="0.571429" fill="black"/>
<ellipse cx="23.0764" cy="13.4527" rx="1.32267" ry="0.661333" transform="rotate(10 23.0764 13.4527)" fill="black"/>
<ellipse rx="1.32267" ry="0.661333" transform="matrix(-0.984808 0.173648 0.173648 0.984808 16.7048 13.4527)" fill="black"/>
<path d="M20.2301 17.7146C19.8492 18.1908 19.4301 19.1432 20.8015 19.1432" stroke="black" stroke-width="0.571429"/>
<path d="M23.1901 21.1432C22.7226 21.2588 21.9093 21.401 20.3294 21.401C18.7495 21.401 18.0048 21.2637 17.4688 21.1432" stroke="black" stroke-width="0.285714" stroke-linecap="round"/>
</g>
<defs>
<clipPath id="clip0_1416_20776">
<path d="M0.714844 20C0.714844 8.95431 9.66915 0 20.7148 0C31.7605 0 40.7148 8.95431 40.7148 20C40.7148 31.0457 31.7605 40 20.7148 40C9.66915 40 0.714844 31.0457 0.714844 20Z" fill="white"/>
</clipPath>
</defs>
</svg>
