<svg width="1364" height="301" viewBox="0 0 1364 301" fill="none" xmlns="http://www.w3.org/2000/svg">
  <g id="logo" opacity="0">
    <animate attributeName="opacity" values="1;0.3;1" dur="3s" calcMode="linear" repeatCount="indefinite" />
    <path
      d="M75 0.355469C33.5786 0.355469 0 33.9341 0 75.3554C0 116.777 33.5786 150.355 75 150.355H150V75.3554C150 33.9341 116.421 0.355469 75 0.355469Z"
      fill="#4318FF" />
    <path
      d="M0 75.3555C0 75.3555 0 75.3555 0 75.3555V225.355C0 266.777 33.5786 300.355 75 300.355C116.421 300.355 150 266.777 150 225.355L150 150.355H75C33.5786 150.355 2.93756e-05 116.777 0 75.3555Z"
      fill="#A48FFF" />
    <path
      d="M300 75.3554C300 33.9341 266.421 0.355469 225 0.355469C183.579 0.355469 150 33.9341 150 75.3554V150.355H225C266.421 150.355 300 116.777 300 75.3554Z"
      fill="#A48FFF" />
    <path
      d="M150 75.3554V225.355C150 266.777 183.579 300.355 225 300.355C266.421 300.355 300 266.777 300 225.355V75.4943C299.925 116.852 266.375 150.355 225 150.355H150L150 75.3554Z"
      fill="#4318FF" />
    <path d="M225 0.355469C225 0.355469 225 0.355469 225 0.355469V0.355469Z" fill="#4318FF" />
    <path
      d="M493.477 39.3177H515.733V163.73H488.739V91.1226L460.246 131.146H445.181L416.994 90.786V163.73H390V39.3177H412.495L452.747 100.379L493.477 39.3177Z"
      fill="#4318FF" />
    <path
      d="M600.156 39.3177L650.77 163.73H620.095L610.551 139.258H563.346L554.144 163.73H525.173L574.423 39.3177H600.156ZM601.349 115.19L586.523 76.8165L572.378 115.19H601.349Z"
      fill="#4318FF" />
    <path
      d="M747.571 127.982C747.571 137.07 745.128 144.476 740.243 150.198C735.471 155.92 729.45 160.072 722.178 162.653C714.907 165.121 707.466 166.355 699.854 166.355C688.379 166.355 677.87 163.775 668.327 158.613C658.783 153.34 652.421 145.766 649.24 135.892L672.758 122.596C675.257 128.318 678.893 132.75 683.664 135.892C688.55 139.034 694.287 140.605 700.876 140.605C705.762 140.605 709.681 139.707 712.635 137.912C715.703 136.004 717.236 133.255 717.236 129.665C717.236 126.747 716.214 124.335 714.169 122.428C712.124 120.52 709.568 118.949 706.5 117.715C703.433 116.481 699.115 115.078 693.548 113.507C685.368 111.151 678.665 108.795 673.439 106.438C668.327 104.082 663.896 100.548 660.147 95.8351C656.398 91.0104 654.523 84.7269 654.523 76.9849C654.523 68.4573 656.738 61.3324 661.169 55.61C665.714 49.8876 671.565 45.6238 678.722 42.8187C685.993 40.0136 693.776 38.611 702.069 38.611C712.976 38.611 722.519 41.0795 730.699 46.0165C738.879 50.9535 744.162 57.9662 746.548 67.0548L722.69 80.351C720.872 75.3018 718.032 71.3746 714.169 68.5695C710.42 65.7644 705.818 64.3619 700.365 64.3619C695.707 64.3619 691.901 65.4278 688.947 67.5597C686.107 69.6916 684.687 72.4406 684.687 75.8067C684.687 78.3874 685.652 80.5754 687.584 82.3707C689.629 84.1659 692.128 85.6246 695.082 86.7466C698.036 87.8687 702.24 89.2712 707.693 90.9543C716.1 93.4228 722.917 95.8913 728.143 98.3597C733.369 100.716 737.914 104.307 741.776 109.131C745.639 113.956 747.571 120.24 747.571 127.982Z"
      fill="#4318FF" />
    <path
      d="M823.335 39.3177L873.949 163.73H843.274L833.731 139.258H786.525L777.323 163.73H748.352L797.603 39.3177H823.335ZM824.528 115.19L809.702 76.8165L795.558 115.19H824.528Z"
      fill="#4318FF" />
    <path
      d="M1006.45 127.982C1006.45 137.07 1004.01 144.476 999.123 150.198C994.351 155.92 988.33 160.072 981.059 162.653C973.788 165.121 966.346 166.355 958.734 166.355C947.26 166.355 936.751 163.775 927.207 158.613C917.664 153.34 911.302 145.766 908.12 135.892L931.638 122.596C934.138 128.318 937.773 132.75 942.545 135.892C947.43 139.034 953.167 140.605 959.757 140.605C964.642 140.605 968.562 139.707 971.516 137.912C974.583 136.004 976.117 133.255 976.117 129.665C976.117 126.747 975.094 124.335 973.049 122.428C971.004 120.52 968.448 118.949 965.381 117.715C962.313 116.481 957.996 115.078 952.429 113.507C944.249 111.151 937.546 108.795 932.32 106.438C927.207 104.082 922.776 100.548 919.027 95.8351C915.278 91.0104 913.403 84.7269 913.403 76.9849C913.403 68.4573 915.619 61.3324 920.05 55.61C924.594 49.8876 930.445 45.6238 937.603 42.8187C944.874 40.0136 952.656 38.611 960.95 38.611C971.856 38.611 981.4 41.0795 989.58 46.0165C997.76 50.9535 1003.04 57.9662 1005.43 67.0548L981.57 80.351C979.752 75.3018 976.912 71.3746 973.049 68.5695C969.3 65.7644 964.699 64.3619 959.246 64.3619C954.587 64.3619 950.781 65.4278 947.828 67.5597C944.987 69.6916 943.567 72.4406 943.567 75.8067C943.567 78.3874 944.533 80.5754 946.464 82.3707C948.509 84.1659 951.009 85.6246 953.963 86.7466C956.917 87.8687 961.12 89.2712 966.573 90.9543C974.981 93.4228 981.797 95.8913 987.023 98.3597C992.25 100.716 996.794 104.307 1000.66 109.131C1004.52 113.956 1006.45 120.24 1006.45 127.982Z"
      fill="#4318FF" />
    <path
      d="M1083.75 157.94C1077.39 163.55 1068.41 166.355 1056.82 166.355C1046.49 166.355 1038.19 163.719 1031.94 158.445C1025.69 153.059 1022.57 143.578 1022.57 130.001V100.211H1006.38V77.1532H1022.57V49.2143H1050.35V77.1532H1077.27V100.211H1050.35V125.12C1050.35 130.731 1051.2 135.107 1052.9 138.248C1054.61 141.278 1057.85 142.793 1062.62 142.793C1066.48 142.793 1070.29 141.502 1074.04 138.922L1083.75 157.94Z"
      fill="#4318FF" />
    <path
      d="M1128.1 74.7969C1140.82 74.7969 1150.65 78.3313 1157.58 85.4002C1164.51 92.3568 1167.98 102.231 1167.98 115.022V139.376V163.73H1142.59C1142.59 159.286 1142.59 156.324 1142.59 154.742C1139.87 158.669 1137.42 161.587 1133.55 163.494C1129.69 165.402 1124.8 166.355 1118.9 166.355C1112.65 166.355 1106.91 165.29 1101.68 163.158C1096.57 160.914 1092.48 157.772 1089.41 153.732C1086.46 149.581 1084.98 144.7 1084.98 139.09C1084.98 133.255 1086.63 128.15 1089.93 123.774C1093.33 119.286 1097.88 115.864 1103.56 113.507C1109.24 111.151 1115.43 109.973 1122.13 109.973C1128.38 109.973 1134.52 111.039 1140.54 113.171C1139.74 102.175 1134.69 96.6767 1125.37 96.6767C1117.53 96.6767 1111.85 100.267 1108.33 107.448L1088.73 96.1718C1092.03 89.5517 1097.08 84.3342 1103.9 80.5193C1110.83 76.7043 1118.9 74.7969 1128.1 74.7969ZM1140.54 130.17C1136.11 129.048 1131.91 128.487 1127.93 128.487C1123.27 128.487 1119.58 129.328 1116.85 131.011C1114.13 132.694 1112.76 134.938 1112.76 137.743C1112.76 140.324 1113.78 142.344 1115.83 143.802C1117.87 145.261 1120.49 145.99 1123.67 145.99C1127.99 145.99 1131.85 144.756 1135.26 142.288C1138.78 139.819 1140.54 136.509 1140.54 132.358V130.17Z"
      fill="#4318FF" />
    <path
      d="M1224.26 142.624C1227.67 142.624 1230.51 141.895 1232.78 140.436C1235.17 138.865 1237.27 136.621 1239.09 133.704L1260.05 145.654C1257.32 152.386 1252.72 157.547 1246.24 161.138C1239.77 164.616 1232.44 166.355 1224.26 166.355C1216.42 166.355 1208.98 164.672 1201.93 161.306C1195 157.828 1189.32 152.667 1184.89 145.822C1180.58 138.865 1178.42 130.45 1178.42 120.576C1178.42 110.702 1180.58 102.343 1184.89 95.4985C1189.32 88.5419 1195 83.3805 1201.93 80.0144C1208.98 76.536 1216.42 74.7969 1224.26 74.7969C1232.44 74.7969 1239.77 76.5921 1246.24 80.1827C1252.72 83.661 1257.32 88.7102 1260.05 95.3302L1239.09 107.448C1237.15 104.531 1235 102.287 1232.61 100.716C1230.34 99.1452 1227.55 98.3597 1224.26 98.3597C1219.03 98.3597 1214.83 100.436 1211.65 104.587C1208.58 108.626 1207.05 113.956 1207.05 120.576C1207.05 127.196 1208.58 132.526 1211.65 136.565C1214.83 140.605 1219.03 142.624 1224.26 142.624Z"
      fill="#4318FF" />
    <path
      d="M1328.72 111.319L1364 163.73H1330.94L1310.15 131.853L1297.54 145.485V163.73H1269.76V36.3555H1297.54V112.497L1328.04 77.1532H1359.91L1328.72 111.319Z"
      fill="#4318FF" />
    <path
      d="M448.775 192.619H456.972V261.217H446.962L446.976 210.514L425.985 243.322H419.987L399.996 210.514V261.217H390V192.619H398.587L422.986 231.392L448.775 192.619Z"
      fill="#4318FF" />
    <path
      d="M497.191 210.81C503.106 210.81 507.877 212.549 511.503 216.029C515.192 219.509 516.947 224.378 516.947 230.895L517.037 261.217H508.45C508.45 258.234 508.45 256.19 508.45 254.913C505.396 259.658 500.199 262.211 493.457 262.211C490.149 262.211 487.013 261.643 484.214 260.441C481.479 259.239 479.285 257.499 477.631 255.222C475.977 252.944 474.964 250.028 474.964 246.801C474.964 241.93 477.154 238.235 481.161 235.388C485.168 232.541 490.289 231.118 496.523 231.118C500.021 231.118 503.615 231.592 507.305 232.541V232.351C507.305 227.86 506.414 224.57 504.633 222.482C502.852 220.331 500.18 219.255 496.618 219.255C493.756 219.255 491.339 219.888 489.367 221.153C487.458 222.355 485.836 224.127 484.501 226.468L477.249 222.292C478.839 218.813 481.415 216.029 484.978 213.941C488.54 211.853 492.611 210.81 497.191 210.81ZM507.305 239.943C503.488 238.994 500.148 238.52 497.286 238.52C493.469 238.52 490.512 239.247 488.413 240.702C486.313 242.158 485.264 244.182 485.264 246.776C485.264 249.117 486.123 250.983 487.84 252.375C489.557 253.703 491.816 254.368 494.614 254.368C498.113 254.368 501.103 253.387 503.583 251.426C506.064 249.401 507.305 246.618 507.305 243.075V239.943Z"
      fill="#4318FF" />
    <path
      d="M560.927 232.386L581.418 261.217H569.396L554.93 239.842L545.934 248.674V261.217H536.938V192.619H545.934V236.363L567.583 212.005H579.319L560.927 232.386Z"
      fill="#4318FF" />
    <path
      d="M613.148 210.81C617.474 210.81 621.259 211.822 624.503 213.846C627.747 215.808 630.259 218.528 632.04 222.008C633.822 225.424 634.712 229.283 634.712 233.585C634.712 235.04 634.553 236.78 634.235 238.804H599.504C599.886 243.739 601.413 247.472 604.084 250.002C606.756 252.47 610.095 253.703 614.103 253.703C619.319 253.703 623.103 251.552 625.457 247.25L632.804 251.521C631.532 254.937 629.114 257.594 625.552 259.492C621.99 261.327 617.795 262.211 613.406 262.211C608.89 262.211 605.006 261.264 601.317 259.302C597.628 257.278 594.67 254.304 592.444 250.382C590.281 246.46 588.916 241.803 588.916 236.363C588.916 231.048 590.281 226.436 592.444 222.577C594.67 218.718 597.596 215.808 601.222 213.846C604.911 211.822 608.887 210.81 613.148 210.81ZM612.767 219.35C609.523 219.35 606.692 220.394 604.275 222.482C601.921 224.506 600.427 227.48 599.79 231.402H624.407C624.153 227.606 622.976 224.665 620.877 222.577C618.778 220.426 616.074 219.35 612.767 219.35Z"
      fill="#4318FF" />
    <path
      d="M703.919 253.419C708.372 253.419 711.934 251.363 714.606 247.25L722.143 251.616C720.426 255.159 717.977 257.816 714.796 259.587C711.68 261.359 707.939 262.211 703.868 262.211C699.415 262.211 695.491 261.2 691.802 259.113C688.112 257.025 685.186 254.051 683.024 250.192C680.861 246.27 679.779 241.715 679.779 236.527C679.779 231.339 680.714 226.8 682.877 222.941C685.04 219.019 688.112 216.029 691.802 213.941C695.491 211.853 699.415 210.81 703.868 210.81C707.939 210.81 711.68 211.695 714.796 213.467C717.977 215.238 720.143 217.907 721.861 221.45L714.863 225.427C712.192 221.378 708.372 219.73 703.919 219.73C699.785 219.73 696.445 221.248 693.901 224.285C691.356 227.259 689.874 231.175 689.874 236.363C689.874 241.614 691.356 245.922 693.901 248.959C696.445 251.932 699.785 253.419 703.919 253.419Z"
      fill="#4318FF" />
    <path
      d="M761.558 210.81C766.838 210.81 771.068 212.581 774.248 216.124C777.492 219.603 779.114 224.601 779.114 231.118V261.217H769.287V234.06C769.287 229.504 768.428 225.993 766.711 223.526C764.993 221.059 762.385 219.825 758.887 219.825C755.325 219.825 752.271 221.09 749.727 223.621C747.246 226.088 746.006 229.631 746.006 234.249V261.217H736.178V192.619H746.006V219.066C747.66 216.345 749.822 214.289 752.494 212.897C755.229 211.505 758.251 210.81 761.558 210.81Z"
      fill="#4318FF" />
    <path
      d="M818.128 210.81C824.044 210.81 828.815 212.549 832.44 216.029C836.13 219.509 837.975 224.506 837.975 231.023V260.878H829.313C829.313 257.895 829.313 256.404 829.313 255.127C826.26 259.872 821.054 262.244 814.312 262.244C811.004 262.244 807.951 261.643 805.152 260.441C802.417 259.239 800.222 257.499 798.568 255.222C796.915 252.944 796.088 250.192 796.088 246.966C796.088 242.094 798.091 238.235 802.099 235.388C806.106 232.541 811.227 231.118 817.46 231.118C820.959 231.118 824.553 231.592 828.242 232.541V232.351C828.242 227.86 827.352 224.57 825.571 222.482C823.79 220.331 821.118 219.255 817.556 219.255C814.693 219.255 812.276 219.888 810.304 221.153C808.396 222.355 806.774 224.127 805.438 226.468L798.187 222.292C799.777 218.813 802.353 216.029 805.915 213.941C809.477 211.853 813.548 210.81 818.128 210.81ZM828.242 239.943C824.426 238.994 821.086 238.52 818.224 238.52C814.407 238.52 811.449 239.247 809.35 240.702C807.251 242.158 806.202 244.182 806.202 246.776C806.202 249.117 807.06 250.983 808.778 252.375C810.495 253.703 812.753 254.368 815.552 254.368C819.051 254.368 822.04 253.387 824.521 251.426C827.002 249.401 828.242 246.618 828.242 243.075V239.943Z"
      fill="#4318FF" />
    <path
      d="M882.701 210.81C888.044 210.81 892.306 212.549 895.486 216.029C898.667 219.509 899.784 224.538 899.784 231.118V261.217H890.787V234.06C890.787 229.504 889.57 225.993 887.853 223.526C886.135 221.059 883.527 219.825 880.029 219.825C876.467 219.825 873.414 221.09 870.869 223.621C868.388 226.088 866.798 229.631 866.798 234.249V261.217H857.801V211.666H866.798C866.798 214.649 866.798 216.14 866.798 219.123C868.451 216.086 870.424 214.7 873.159 213.182C875.958 211.6 879.138 210.81 882.701 210.81Z"
      fill="#4318FF" />
    <path
      d="M964.269 211.948V257.404C964.269 267.084 961.884 273.98 957.113 278.092C952.406 282.268 946.745 284.355 940.129 284.355C935.041 284.355 930.524 283.28 926.581 281.129C922.701 278.978 920.029 275.973 918.566 272.114L926.294 267.653C928.775 272.841 933.387 275.435 940.129 275.435C944.773 275.435 948.335 274.012 950.816 271.165C953.297 268.381 954.537 263.636 954.537 256.93V253.609C952.756 256.519 950.752 258.701 947.953 260.156C945.218 261.548 942.229 262.244 938.984 262.244C935.104 262.244 931.447 261.232 928.012 259.208C924.641 257.12 921.905 254.146 919.806 250.287C917.771 246.365 916.753 241.778 916.753 236.527C916.753 231.213 917.771 226.626 919.806 222.767C921.905 218.844 924.641 215.871 928.012 213.846C931.447 211.822 935.104 210.81 938.984 210.81C942.229 210.81 945.282 211.569 948.144 213.087C951.007 214.605 953.761 216.14 955.26 219.123C955.26 216.14 955.26 214.649 955.26 211.948H964.269ZM940.416 253.514C944.296 253.514 947.603 252.122 950.339 249.338C953.137 246.554 954.537 242.284 954.537 236.527C954.537 230.833 953.137 226.626 950.339 223.905C947.603 221.185 944.296 219.825 940.416 219.825C936.345 219.825 933.069 221.28 930.588 224.19C928.171 227.1 926.962 231.213 926.962 236.527C926.962 241.904 928.171 246.08 930.588 249.053C933.069 252.027 936.345 253.514 940.416 253.514Z"
      fill="#4318FF" />
    <path
      d="M1005.42 210.81C1009.74 210.81 1013.53 211.822 1016.77 213.846C1020.02 215.808 1022.53 218.528 1024.31 222.008C1026.09 225.424 1026.98 229.283 1026.98 233.585C1026.98 235.04 1026.82 236.78 1026.51 238.804H991.775C992.157 243.739 993.683 247.472 996.355 250.002C999.027 252.47 1002.37 253.703 1006.37 253.703C1011.59 253.703 1015.37 251.552 1017.73 247.25L1025.07 251.521C1023.8 254.937 1021.39 257.594 1017.82 259.492C1014.26 261.327 1010.29 262.244 1005.9 262.244C1001.38 262.244 997.277 261.264 993.588 259.302C989.899 257.278 986.941 254.304 984.715 250.382C982.552 246.46 981.47 241.778 981.47 236.337C981.47 231.023 982.552 226.436 984.715 222.577C986.941 218.718 989.867 215.808 993.493 213.846C997.182 211.822 1001.16 210.81 1005.42 210.81ZM1005.04 219.35C1001.79 219.35 998.963 220.394 996.546 222.482C994.192 224.506 992.698 227.48 992.061 231.402H1016.68C1016.42 227.606 1015.25 224.665 1013.15 222.577C1011.05 220.426 1008.35 219.35 1005.04 219.35Z"
      fill="#4318FF" />
    <path
      d="M1096 210.81C1100.32 210.81 1104.11 211.822 1107.35 213.846C1110.6 215.808 1113.11 218.528 1114.89 222.008C1116.67 225.424 1117.56 229.283 1117.56 233.585C1117.56 235.04 1117.4 236.78 1117.09 238.804H1082.36C1082.74 243.739 1084.26 247.472 1086.93 250.002C1089.61 252.47 1092.95 253.703 1096.95 253.703C1102.17 253.703 1105.95 251.552 1108.31 247.25L1115.65 251.521C1114.38 254.937 1111.97 257.594 1108.4 259.492C1104.84 261.327 1100.87 262.244 1096.48 262.244C1091.96 262.244 1087.86 261.264 1084.17 259.302C1080.48 257.278 1077.52 254.304 1075.29 250.382C1073.13 246.46 1072.05 241.778 1072.05 236.337C1072.05 231.023 1073.13 226.436 1075.29 222.577C1077.52 218.718 1080.45 215.808 1084.07 213.846C1087.76 211.822 1091.74 210.81 1096 210.81ZM1095.62 219.35C1092.37 219.35 1089.54 220.394 1087.13 222.482C1084.77 224.506 1083.28 227.48 1082.64 231.402H1107.26C1107 227.606 1105.83 224.665 1103.73 222.577C1101.63 220.426 1098.93 219.35 1095.62 219.35Z"
      fill="#4318FF" />
    <path
      d="M1153.23 210.81C1159.14 210.81 1163.92 212.549 1167.54 216.029C1171.23 219.509 1172.67 224.536 1172.67 231.053V260.878H1163.67C1163.67 257.895 1163.67 256.404 1163.67 254.913C1160.62 259.658 1156.16 262.244 1149.41 262.244C1146.1 262.244 1143.05 261.643 1140.25 260.441C1137.52 259.239 1135.32 257.499 1133.67 255.222C1132.02 252.944 1131.19 250.192 1131.19 246.966C1131.19 242.094 1133.19 238.235 1137.2 235.388C1141.21 232.541 1146.33 231.118 1152.56 231.118C1156.06 231.118 1159.65 231.592 1163.34 232.541V232.351C1163.34 227.86 1162.45 224.57 1160.67 222.482C1158.89 220.331 1156.22 219.255 1152.66 219.255C1149.79 219.255 1147.38 219.888 1145.41 221.153C1143.5 222.355 1141.87 224.127 1140.54 226.468L1133.29 222.292C1134.88 218.813 1137.45 216.029 1141.02 213.941C1144.58 211.853 1148.65 210.81 1153.23 210.81ZM1163.34 239.943C1159.53 238.994 1156.19 238.52 1153.32 238.52C1149.51 238.52 1146.55 239.247 1144.45 240.702C1142.35 242.158 1141.3 244.182 1141.3 246.776C1141.3 249.117 1142.16 250.983 1143.88 252.375C1145.6 253.703 1147.85 254.368 1150.65 254.368C1154.15 254.368 1157.14 253.387 1159.62 251.426C1162.1 249.401 1163.34 246.618 1163.34 243.075V239.943Z"
      fill="#4318FF" />
    <path
      d="M1226.87 246.966C1226.87 251.584 1225.08 255.285 1221.52 258.069C1218.02 260.852 1213.44 262.244 1207.78 262.244C1202.76 262.244 1198.46 261.169 1194.9 259.018C1191.34 256.867 1188.95 253.893 1187.75 250.097L1195.09 245.827C1196.17 248.484 1197.8 250.509 1199.96 251.9C1202.12 253.229 1204.73 253.893 1207.78 253.893C1210.52 253.893 1212.68 253.355 1214.27 252.28C1215.92 251.141 1216.75 249.591 1216.75 247.63C1216.75 246.112 1216.24 244.878 1215.23 243.929C1214.27 242.917 1213.03 242.126 1211.5 241.556C1210.04 240.987 1208.01 240.323 1205.4 239.564C1201.96 238.615 1199.2 237.697 1197.1 236.812C1195.06 235.926 1193.28 234.629 1191.75 232.921C1190.29 231.149 1189.56 228.809 1189.56 225.898C1189.56 222.862 1190.39 220.204 1192.04 217.927C1193.76 215.586 1196.02 213.815 1198.81 212.613C1201.68 211.411 1204.82 210.81 1208.26 210.81C1212.78 210.81 1216.62 211.79 1219.8 213.751C1223.05 215.713 1225.21 218.37 1226.29 221.723L1218.95 225.898C1217.99 223.811 1216.56 222.197 1214.65 221.059C1212.81 219.92 1210.58 219.35 1207.97 219.35C1205.49 219.35 1203.49 219.856 1201.96 220.869C1200.44 221.818 1199.67 223.21 1199.67 225.044C1199.67 226.436 1200.12 227.575 1201.01 228.461C1201.96 229.283 1203.14 229.979 1204.54 230.548C1205.94 231.054 1207.91 231.655 1210.45 232.351C1213.89 233.3 1216.69 234.249 1218.85 235.198C1221.08 236.147 1222.95 237.571 1224.48 239.469C1226.07 241.367 1226.87 243.866 1226.87 246.966Z"
      fill="#4318FF" />
    <path
      d="M1247.28 203.977C1245.63 203.977 1244.2 203.344 1242.99 202.079C1241.78 200.814 1241.18 199.327 1241.18 197.619C1241.18 195.911 1241.78 194.455 1242.99 193.253C1244.2 191.988 1245.63 191.355 1247.28 191.355C1249.06 191.355 1250.56 191.988 1251.77 193.253C1252.98 194.455 1253.58 195.911 1253.58 197.619C1253.58 199.327 1252.94 200.814 1251.67 202.079C1250.46 203.344 1249 203.977 1247.28 203.977ZM1252.24 261.217H1241.64V211.578H1252.24V261.217Z"
      fill="#4318FF" />
    <path
      d="M1293.62 210.584C1297.95 210.584 1301.67 211.822 1304.91 213.846C1308.16 215.808 1310.67 218.528 1312.45 222.008C1314.23 225.424 1315.12 229.283 1315.12 233.585C1315.12 235.04 1314.96 236.396 1314.65 238.42H1279.91C1280.3 243.355 1281.82 247.472 1284.49 250.002C1287.17 252.47 1290.51 253.703 1294.51 253.703C1299.73 253.703 1303.51 251.552 1305.87 247.25L1313.21 251.521C1311.94 254.937 1309.52 257.594 1305.96 259.492C1302.4 261.327 1298.51 262.281 1294.12 262.281C1289.6 262.281 1285.42 261.264 1281.73 259.302C1278.04 257.278 1275.08 254.304 1272.85 250.382C1270.69 246.46 1269.61 241.873 1269.61 236.432C1269.61 231.118 1270.69 226.436 1272.85 222.577C1275.08 218.718 1278.01 215.808 1281.63 213.846C1285.32 211.822 1289.36 210.584 1293.62 210.584ZM1293.18 219.35C1289.93 219.35 1287.1 220.394 1284.68 222.482C1282.33 224.506 1280.84 227.48 1280.2 231.402H1304.82C1304.56 227.606 1303.39 224.665 1301.29 222.577C1299.19 220.426 1296.48 219.35 1293.18 219.35Z"
      fill="#4318FF" />
    <path
      d="M1355.99 210.81C1357.64 210.81 1359.17 211.031 1360.57 211.474C1362.03 211.917 1363.17 212.518 1364 213.277L1360.28 220.964C1358.82 220.078 1357.19 219.635 1355.41 219.635C1351.79 219.635 1348.83 221.122 1346.54 224.095C1344.31 227.069 1343.6 231.514 1343.6 237.018V260.789H1333.1V211.578H1342.1C1342.1 214.56 1342.1 216.14 1342.1 219.123C1343.56 216.086 1345.93 214.605 1348.16 213.087C1350.45 211.569 1353.06 210.81 1355.99 210.81Z"
      fill="#4318FF" />
  </g>
</svg>