<svg width="16" height="16" viewBox="0 0 16 16" fill="none" xmlns="http://www.w3.org/2000/svg">
<path d="M4 0C1.79086 0 0 1.79086 0 4C0 6.20913 1.79086 7.99999 4 7.99999H8V4C8 1.79086 6.20914 0 4 0Z" fill="#4318FF"/>
<path d="M0 4C0 4 0 4 0 4V12C0 14.2091 1.79086 16 4 16C6.20914 16 8 14.2091 8 12L8 7.99999H4C1.79086 7.99999 1.5667e-06 6.20914 0 4Z" fill="#A48FFF"/>
<path d="M16 4C16 1.79086 14.2091 0 12 0C9.79086 0 8 1.79086 8 4V8H12C14.2091 8 16 6.20914 16 4Z" fill="#A48FFF"/>
<path d="M8 4V12C8 14.2091 9.79086 16 12 16C14.2091 16 16 14.2091 16 12V4.00741C15.996 6.21314 14.2067 7.99999 12 7.99999H8.00001L8 4Z" fill="#4318FF"/>
<path d="M12 0C12 0 12 0 12 0V0Z" fill="#4318FF"/>
</svg>
