<svg width="41" height="40" viewBox="0 0 41 40" fill="none" xmlns="http://www.w3.org/2000/svg">
<g clip-path="url(#clip0_1416_20777)">
<path d="M0.572266 20C0.572266 8.95431 9.52657 0 20.5723 0V0C31.618 0 40.5723 8.95431 40.5723 20V20C40.5723 31.0457 31.618 40 20.5723 40V40C9.52657 40 0.572266 31.0457 0.572266 20V20Z" fill="#EBF6FF"/>
<path d="M12.043 14.7455C12.043 9.16834 14.2564 7.21234 20.1305 7.21234C26.0045 7.21234 28.0549 9.57214 28.0549 14.7455C28.0549 19.9189 27.6766 18.6323 27.6766 18.6323C27.6766 18.9016 27.6598 19.1674 27.6271 19.429H12.6938C12.6611 19.1674 12.6443 18.9016 12.6443 18.6323C12.6443 18.6323 12.043 20.3227 12.043 14.7455Z" fill="black"/>
<path d="M2.51372 38.4051C3.22511 32.4058 11.0386 27.68 20.5727 27.68C30.1068 27.68 37.9203 32.4058 38.6317 38.4051H38.6845V45.565H2.46094V38.4051H2.51372Z" fill="black"/>
<path d="M16.291 21.7146H24.2825V28.0175C24.2825 30.2243 22.4935 32.0132 20.2867 32.0132V32.0132C18.08 32.0132 16.291 30.2243 16.291 28.0175V21.7146Z" fill="#FDCDC5"/>
<path fill-rule="evenodd" clip-rule="evenodd" d="M24.2825 25.0256C23.4565 26.4862 22.1758 27.4238 20.7378 27.4238H19.3847C18.1871 27.4238 17.0986 26.7735 16.291 25.7124V21.1381H24.2825V25.0256Z" fill="#FBACA3"/>
<circle cx="27.1646" cy="18.8574" r="2.28571" fill="#FDCDC5"/>
<circle cx="12.8795" cy="18.8574" r="2.28571" fill="#FDCDC5"/>
<path fill-rule="evenodd" clip-rule="evenodd" d="M13.4976 13.0258C13.4976 11.1401 15.1496 9.68067 17.0209 9.91314L19.1913 10.1828C19.7293 10.2496 20.2735 10.2496 20.8115 10.1828L22.9819 9.91314C24.8532 9.68067 26.5052 11.1401 26.5052 13.0258C26.5052 13.3503 26.5314 13.6743 26.5837 13.9946L26.9907 16.4869L26.9925 16.4977C27.6308 16.9031 28.0544 17.6164 28.0544 18.4286C28.0544 19.2105 27.6617 19.9008 27.0628 20.3129C26.8574 23.2821 24.3837 25.6271 21.3623 25.6271H18.6405C15.6086 25.6271 13.1282 23.2658 12.9379 20.2819C12.3638 19.8667 11.9902 19.1913 11.9902 18.4286C11.9902 17.6364 12.3933 16.9383 13.0055 16.5282C13.0076 16.5144 13.0098 16.5006 13.0121 16.4869L13.419 13.9946C13.4713 13.6743 13.4976 13.3503 13.4976 13.0258Z" fill="#FDCDC5"/>
<path d="M27.4023 18.0049C27.7011 17.6724 28.6241 17.9861 28.6576 18.6174" stroke="black" stroke-width="0.285714" stroke-linecap="round"/>
<path d="M27.6168 17.8879C27.9334 17.822 28.2266 18.285 28.0192 18.5923" stroke="black" stroke-width="0.285714" stroke-linecap="round"/>
<path d="M12.6426 18.0049C12.3438 17.6724 11.4209 17.9861 11.3873 18.6174" stroke="black" stroke-width="0.285714" stroke-linecap="round"/>
<path d="M12.4281 17.8879C12.1115 17.822 11.8183 18.285 12.0257 18.5923" stroke="black" stroke-width="0.285714" stroke-linecap="round"/>
<ellipse cx="15.4305" cy="18.286" rx="1.42857" ry="1.14286" fill="#FBACA3"/>
<ellipse cx="24.3524" cy="18.286" rx="1.42857" ry="1.14286" fill="#FBACA3"/>
<ellipse cx="19.9501" cy="21.6117" rx="0.621939" ry="0.211837" fill="#FBACA3"/>
<circle cx="16.8624" cy="16.5717" r="0.571429" fill="black"/>
<circle cx="23.1476" cy="16.5717" r="0.571429" fill="black"/>
<ellipse cx="23.5061" cy="14.5956" rx="1.32267" ry="0.661333" transform="rotate(10 23.5061 14.5956)" fill="black"/>
<ellipse rx="1.32267" ry="0.661333" transform="matrix(-0.984808 0.173648 0.173648 0.984808 16.5877 14.5956)" fill="black"/>
<path d="M20.0875 17.7146C19.7066 18.1908 19.2875 19.1432 20.659 19.1432" stroke="black" stroke-width="0.571429"/>
<path d="M21.8264 21.3543L21.6942 21.3998C21.4209 21.1693 20.9452 20.8861 20.0213 20.8861C19.0974 20.8861 18.6619 21.1597 18.3484 21.3998L18.209 21.3062" stroke="black" stroke-width="0.285714" stroke-linecap="round"/>
<path fill-rule="evenodd" clip-rule="evenodd" d="M19.1425 7.2865C19.2512 7.05091 19.3938 6.49902 19.0943 6.1762C19.0621 6.14145 19.0323 6.11251 19.0049 6.08869C19.096 6.06851 19.1864 6.0578 19.2754 6.0578C20.503 6.0578 23.0933 8.09434 23.0933 8.92516C23.0933 9.75599 21.6305 9.88872 19.826 9.88872C18.0214 9.88872 16.5586 9.75599 16.5586 8.92516C16.5586 8.45745 17.0306 7.60763 17.6621 6.95414C17.7013 7.15358 17.8377 7.54169 18.1096 7.66713C17.9402 7.39113 17.9548 7.00221 18.2099 6.59236C18.3169 6.93193 18.419 7.13949 18.4566 7.20082C18.4033 7.04506 18.3528 6.66014 18.5779 6.36651C18.6849 6.70608 18.9989 7.12132 19.1425 7.2865Z" fill="black"/>
<rect x="20.7812" y="9.6532" width="0.330452" height="1.68529" transform="rotate(-30 20.7812 9.6532)" fill="#FDCDC5"/>
<rect x="20.2871" y="10.0104" width="0.330452" height="1.68529" transform="rotate(-30 20.2871 10.0104)" fill="#FDCDC5"/>
<path opacity="0.58" fill-rule="evenodd" clip-rule="evenodd" d="M18.9877 25.6273H18.6399C18.2468 25.6273 17.863 25.5876 17.4922 25.512C17.8724 25.4962 18.1867 25.2257 18.2692 24.8667C18.3633 24.0216 19.0801 23.3644 19.9503 23.3644C20.8261 23.3644 21.5465 24.03 21.6331 24.883C21.724 25.2448 22.0514 25.5127 22.4414 25.5127C22.4704 25.5127 22.499 25.5112 22.5271 25.5084C22.1509 25.5863 21.7611 25.6273 21.3617 25.6273H20.9107C20.9107 25.627 20.9107 25.6267 20.9107 25.6264C20.884 25.6269 20.8574 25.6272 20.8307 25.6273H19.0637C19.0384 25.6272 19.013 25.6269 18.9877 25.6264C18.9877 25.6267 18.9877 25.627 18.9877 25.6273Z" fill="#A3AED0"/>
<path d="M21.5383 20.7355C21.2902 20.5464 20.8586 20.314 20.0201 20.314C19.1817 20.314 18.7864 20.5385 18.502 20.7355" stroke="#C9BBCB" stroke-width="0.571429" stroke-linecap="round"/>
</g>
<defs>
<clipPath id="clip0_1416_20777">
<path d="M0.572266 20C0.572266 8.95431 9.52657 0 20.5723 0V0C31.618 0 40.5723 8.95431 40.5723 20V20C40.5723 31.0457 31.618 40 20.5723 40V40C9.52657 40 0.572266 31.0457 0.572266 20V20Z" fill="white"/>
</clipPath>
</defs>
</svg>
