<svg width="41" height="40" viewBox="0 0 41 40" fill="none" xmlns="http://www.w3.org/2000/svg">
<g clip-path="url(#clip0_1416_20779)">
<path d="M0.285156 20C0.285156 8.95431 9.23946 0 20.2852 0C31.3309 0 40.2852 8.95431 40.2852 20C40.2852 31.0457 31.3309 40 20.2852 40C9.23946 40 0.285156 31.0457 0.285156 20Z" fill="#FFF7E8"/>
<path d="M11.4267 23.7722C9.90876 11.8868 12.5255 5.38306 19.442 5.38306C25.925 5.38306 29.5086 11.2286 28.0298 23.7722C26.551 36.3157 27.4584 32.2433 27.4584 32.2433C27.4584 32.8569 27.4424 33.4626 27.4113 34.0586H12.0769C12.0458 33.4626 12.0298 32.8569 12.0298 32.2433C12.0298 32.2433 12.9447 35.6576 11.4267 23.7722Z" fill="black"/>
<path d="M20.2846 27.209C13.815 27.209 8.57031 33.2075 8.57031 40.607L20.2846 44.708L31.9989 40.607C31.9989 33.2075 26.7542 27.209 20.2846 27.209Z" fill="#FF8A80"/>
<path d="M17.1426 25.0873H22.8569V27.2091C22.8569 28.7871 21.5777 30.0663 19.9997 30.0663C18.4218 30.0663 17.1426 28.7871 17.1426 27.2091V25.0873Z" fill="#FDCDC5"/>
<path fill-rule="evenodd" clip-rule="evenodd" d="M22.8569 25.7243C22.2041 26.4872 21.3933 26.9391 20.5147 26.9391H19.342C18.5264 26.9391 17.7692 26.5496 17.1426 25.8834V25.0876H22.8569V25.7243Z" fill="#FBACA3"/>
<path fill-rule="evenodd" clip-rule="evenodd" d="M13.4554 15.6219C13.4554 12.1857 16.241 9.40009 19.6773 9.40009C23.1135 9.40009 25.8991 12.1857 25.8991 15.6219V17.1338C26.1901 16.9996 26.5142 16.9246 26.8557 16.9246C28.1181 16.9246 29.1415 17.948 29.1415 19.2104C29.1415 20.4727 28.1181 21.4961 26.8557 21.4961C26.4864 21.4961 26.1374 21.4085 25.8286 21.2529C25.3969 23.9811 23.0345 26.067 20.1848 26.067H19.1697C16.2142 26.067 13.7827 23.8232 13.4859 20.9461C13.0861 21.2889 12.5665 21.4961 11.9986 21.4961C10.7362 21.4961 9.71289 20.4727 9.71289 19.2104C9.71289 17.948 10.7362 16.9246 11.9986 16.9246C12.5522 16.9246 13.0599 17.1215 13.4554 17.449L13.4554 15.6219Z" fill="#FDCDC5"/>
<circle cx="16.5695" cy="17.2243" r="0.571429" fill="black"/>
<circle cx="22.8546" cy="17.2243" r="0.571429" fill="black"/>
<ellipse cx="24.0862" cy="19.3526" rx="1.42857" ry="1.14286" transform="rotate(-28.5497 24.0862 19.3526)" fill="#FBACA3"/>
<ellipse rx="1.42857" ry="1.14286" transform="matrix(-0.878403 -0.47792 -0.47792 0.878403 15.2907 19.3526)" fill="#FBACA3"/>
<ellipse cx="22.5791" cy="14.3385" rx="1.32267" ry="0.330659" transform="rotate(10 22.5791 14.3385)" fill="black"/>
<ellipse rx="1.32267" ry="0.330659" transform="matrix(-0.984808 0.173648 0.173648 0.984808 16.2744 14.3385)" fill="black"/>
<path d="M19.7125 18.6375C19.3316 19.1137 18.9125 20.0661 20.284 20.0661" stroke="black" stroke-width="0.571429"/>
<path d="M20.6955 22.0895C20.5212 22.1946 20.218 22.3238 19.629 22.3238C19.04 22.3238 18.7623 22.199 18.5625 22.0895" stroke="black" stroke-width="0.285714" stroke-linecap="round"/>
<ellipse cx="19.6293" cy="22.7804" rx="0.305081" ry="0.163016" fill="#FBACA3"/>
<ellipse cx="19.4651" cy="9.6016" rx="0.144832" ry="1.44065" fill="#FDCDC5"/>
<ellipse cx="23.0066" cy="11.4753" rx="4.21841" ry="1.81353" transform="rotate(41.1483 23.0066 11.4753)" fill="black"/>
<path d="M13.1582 18.6461C12.9845 18.0382 11.6167 17.8645 11.1825 18.6461" stroke="black" stroke-width="0.285714" stroke-linecap="round"/>
<path d="M26.2949 18.6469C26.4686 18.039 27.8364 17.8653 28.2706 18.6469" stroke="black" stroke-width="0.285714" stroke-linecap="round"/>
<path d="M26.4939 18.3644C26.8554 18.0842 27.5153 18.4909 27.4423 19.0102" stroke="black" stroke-width="0.285714" stroke-linecap="round"/>
<path d="M12.9593 18.3636C12.5977 18.0834 11.9378 18.4901 12.0109 19.0094" stroke="black" stroke-width="0.285714" stroke-linecap="round"/>
</g>
<defs>
<clipPath id="clip0_1416_20779">
<path d="M0.285156 20C0.285156 8.95431 9.23946 0 20.2852 0C31.3309 0 40.2852 8.95431 40.2852 20C40.2852 31.0457 31.3309 40 20.2852 40C9.23946 40 0.285156 31.0457 0.285156 20Z" fill="white"/>
</clipPath>
</defs>
</svg>
