<svg width="41" height="40" viewBox="0 0 41 40" fill="none" xmlns="http://www.w3.org/2000/svg">
<g clip-path="url(#clip0_1416_20785)">
<path d="M0.857422 20C0.857422 8.95431 9.81173 0 20.8574 0C31.9031 0 40.8574 8.95431 40.8574 20C40.8574 31.0457 31.9031 40 20.8574 40C9.81173 40 0.857422 31.0457 0.857422 20Z" fill="#EBF6FF"/>
<path d="M20.8569 27.2093C14.3872 27.2093 9.14258 33.7821 9.14258 41.8901L20.8569 46.3836L32.5711 41.8901C32.5711 33.7821 27.3265 27.2093 20.8569 27.2093Z" fill="#2C86CC"/>
<path d="M17.0488 23.9861H23.9661V27.6909C23.9661 29.601 22.4177 31.1495 20.5075 31.1495C18.5973 31.1495 17.0488 29.601 17.0488 27.6909V23.9861Z" fill="#FDCDC5"/>
<path fill-rule="evenodd" clip-rule="evenodd" d="M23.9661 24.958C23.2437 26.3383 22.1825 27.2099 20.9997 27.2099H19.8173C18.7383 27.2099 17.7606 26.4846 17.0488 25.3097V23.476H23.9661V24.958Z" fill="#FBACA3"/>
<path d="M14.5608 7.04814C14.7482 5.81775 15.4501 5.45394 16.0749 5.20258C16.0524 5.55474 16.0204 5.9364 15.984 6.31748C17.0533 5.96504 18.3789 5.76194 20.0146 5.76194C26.4217 5.76194 28.8958 8.29841 28.6992 12.9249L28.2046 12.9763L28.6593 13.451L28.2046 13.4983L28.6187 13.9306C28.6135 13.9761 28.608 14.0218 28.6024 14.0676L28.0309 18.0676C28.0309 18.3574 28.015 18.6434 27.9839 18.9248H12.6494C12.6183 18.6434 12.6024 18.3574 12.6024 18.0677C12.6024 18.0677 12.5707 17.4962 11.9993 14.0677C11.7219 12.4037 11.7138 10.3984 12.6952 8.77518C12.8554 8.57286 13.0469 8.40838 13.2481 8.28783L11.875 8.40225C12.0176 8.21895 12.6563 7.88216 14.1135 7.82669C13.8236 7.24219 14.0039 6.83693 14.1899 6.50379C14.3099 6.67358 14.4364 6.86 14.5608 7.04814Z" fill="black"/>
<path fill-rule="evenodd" clip-rule="evenodd" d="M13.8223 13.5029C13.7636 12.2014 14.8029 11.1141 16.1057 11.1141L24.4663 11.1141C25.7691 11.1141 26.8084 12.2014 26.7497 13.5029L26.5881 17.084C26.8483 16.981 27.132 16.9244 27.4289 16.9244C28.6912 16.9244 29.7146 17.9478 29.7146 19.2101C29.7146 20.4725 28.6912 21.4958 27.4289 21.4958C27.0328 21.4958 26.6603 21.3951 26.3355 21.2179C25.9857 22.9681 24.8305 24.4745 23.1889 25.2562L21.76 25.9366C20.8275 26.3807 19.7445 26.3807 18.8119 25.9366L17.3831 25.2562C15.7415 24.4745 14.5863 22.9681 14.2365 21.2179C13.9117 21.3951 13.5392 21.4958 13.1431 21.4958C11.8808 21.4958 10.8574 20.4725 10.8574 19.2101C10.8574 17.9478 11.8808 16.9244 13.1431 16.9244C13.44 16.9244 13.7236 16.981 13.9838 17.084L13.8223 13.5029Z" fill="#FDCDC5"/>
<path d="M26.8779 18.2999C27.2097 17.7617 28.5734 17.9647 28.7799 18.8347" stroke="black" stroke-width="0.285714" stroke-linecap="round"/>
<path d="M27.1471 18.0823C27.571 17.9104 28.0962 18.4806 27.8853 18.9607" stroke="black" stroke-width="0.285714" stroke-linecap="round"/>
<path d="M13.7002 18.2999C13.3684 17.7617 12.0047 17.9647 11.7982 18.8347" stroke="black" stroke-width="0.285714" stroke-linecap="round"/>
<path d="M13.431 18.0823C13.0071 17.9104 12.4819 18.4806 12.6929 18.9607" stroke="black" stroke-width="0.285714" stroke-linecap="round"/>
<circle cx="17.1417" cy="17.2246" r="0.571429" fill="black"/>
<circle cx="23.4269" cy="17.2246" r="0.571429" fill="black"/>
<ellipse cx="23.176" cy="14.665" rx="1.32267" ry="0.661333" transform="rotate(10 23.176 14.665)" fill="black"/>
<ellipse rx="1.32267" ry="0.661333" transform="matrix(-0.984808 0.173648 0.173648 0.984808 16.8455 14.665)" fill="black"/>
<path d="M20.2848 18.6378C19.9038 19.114 19.4848 20.0664 20.8562 20.0664" stroke="black" stroke-width="0.571429"/>
<path d="M18.7323 22.4381C19.0561 22.5394 19.5983 22.6289 20.5524 22.3962C21.5066 22.1635 21.907 21.8517 22.1875 21.5955" stroke="black" stroke-width="0.285714" stroke-linecap="round"/>
<ellipse cx="20.2016" cy="23.0085" rx="0.305081" ry="0.163016" fill="#FBACA3"/>
<path opacity="0.04" fill-rule="evenodd" clip-rule="evenodd" d="M21.9806 26.006C21.7073 26.0462 21.4277 26.067 21.1432 26.067H19.4289C19.1466 26.067 18.8691 26.0465 18.5977 26.0069C18.5977 26.0027 18.5977 25.9985 18.5977 25.9943C18.5977 25.3354 19.355 24.8013 20.2892 24.8013C21.2234 24.8013 21.9807 25.3354 21.9807 25.9943C21.9807 25.9982 21.9807 26.0021 21.9806 26.006Z" fill="#A3AED0"/>
<ellipse cx="24.7528" cy="19.3521" rx="1.42857" ry="1.14286" fill="#FBACA3"/>
<ellipse rx="1.42857" ry="1.14286" transform="matrix(1 0 0 -1 15.9559 19.3521)" fill="#FBACA3"/>
<path d="M14.6194 16.654C14.6194 16.4173 14.8113 16.2254 15.048 16.2254H19.6194C19.8561 16.2254 20.048 16.4173 20.048 16.654V17.7969C20.048 18.6647 19.3444 19.3683 18.4766 19.3683H16.1909C15.323 19.3683 14.6194 18.6647 14.6194 17.7969V16.654Z" stroke="black" stroke-width="0.285714"/>
<path d="M20.9046 16.654C20.9046 16.4173 21.0965 16.2254 21.3331 16.2254H25.9046C26.1413 16.2254 26.3331 16.4173 26.3331 16.654V17.7969C26.3331 18.6647 25.6296 19.3683 24.7617 19.3683H22.476C21.6081 19.3683 20.9046 18.6647 20.9046 17.7969V16.654Z" stroke="black" stroke-width="0.285714"/>
<rect x="20.1895" y="16.654" width="0.571429" height="0.571429" fill="black"/>
<rect x="26.4766" y="16.654" width="0.571429" height="0.571429" fill="black"/>
<rect x="13.9043" y="16.654" width="0.571429" height="0.571429" fill="black"/>
<path d="M15.8871 12.8581C15.2575 12.8581 14.4928 12.7681 13.998 11.1939L14.6727 10.5642C14.9126 10.984 15.4913 12.0305 15.8871 12.8581Z" fill="black"/>
<path d="M18.9474 12.8581C17.1095 12.8581 15.7527 12.7681 14.6191 11.1939L17.6956 10.5642C17.6956 11.4119 17.6591 12.2135 18.9474 12.8581Z" fill="black"/>
<path d="M21.638 12.8577C20.2203 12.8577 18.4987 12.7444 17.3848 10.7606L18.9038 9.9671C19.4439 10.4961 20.7468 11.8148 21.638 12.8577Z" fill="black"/>
<path d="M23.8854 12.8577C22.4633 12.8577 20.7365 12.7444 19.6191 10.7606L21.1428 9.9671C21.6845 10.4961 22.9915 11.8148 23.8854 12.8577Z" fill="black"/>
<path d="M27.594 12.8577C25.6513 12.8577 23.2921 12.7444 21.7656 10.7606L23.8472 9.9671C24.5873 10.4961 26.3728 11.8148 27.594 12.8577Z" fill="black"/>
<path d="M25.7905 13.2701C25.6866 13.0343 25.4595 12.4835 25.3828 12.1669L26.4261 13.1382L25.7905 13.2701Z" fill="#FDCDC5"/>
</g>
<defs>
<clipPath id="clip0_1416_20785">
<path d="M0.857422 20C0.857422 8.95431 9.81173 0 20.8574 0C31.9031 0 40.8574 8.95431 40.8574 20C40.8574 31.0457 31.9031 40 20.8574 40C9.81173 40 0.857422 31.0457 0.857422 20Z" fill="white"/>
</clipPath>
</defs>
</svg>
