<svg width="41" height="40" viewBox="0 0 41 40" fill="none" xmlns="http://www.w3.org/2000/svg">
<g clip-path="url(#clip0_1416_20782)">
<path d="M0.285156 20C0.285156 8.95431 9.23946 0 20.2852 0C31.3309 0 40.2852 8.95431 40.2852 20C40.2852 31.0457 31.3309 40 20.2852 40C9.23946 40 0.285156 31.0457 0.285156 20Z" fill="#D7EDFF"/>
<path d="M20.2846 27.2093C13.815 27.2093 8.57031 33.5149 8.57031 41.2934L20.2846 45.6043L31.9989 41.2934C31.9989 33.5149 26.7542 27.2093 20.2846 27.2093Z" fill="#323D6F"/>
<path d="M17.1426 25.495H22.8569V27.2093C22.8569 28.7872 21.5777 30.0664 19.9997 30.0664C18.4218 30.0664 17.1426 28.7872 17.1426 27.2093V25.495Z" fill="#FDCDC5"/>
<path fill-rule="evenodd" clip-rule="evenodd" d="M22.8569 25.6359C22.1799 26.4519 21.3259 26.9386 20.3977 26.9386H19.2038C18.4493 26.9386 17.7438 26.617 17.1426 26.0584V25.4944H22.8569V25.6359Z" fill="#FBACA3"/>
<path fill-rule="evenodd" clip-rule="evenodd" d="M12.2752 9.00811C12.8232 8.24066 13.6032 7.80614 14.0283 8.29467C14.208 6.91794 14.3961 6.79368 15.0748 6.34534C15.1248 6.31226 15.1776 6.27742 15.2332 6.24019C15.239 6.23631 15.2446 6.23244 15.2501 6.22858C16.3607 5.69903 17.7436 5.38171 19.4432 5.38171C24.6846 5.38171 28.1561 8.24519 28.1088 12.9239L27.6333 12.9734L28.0883 13.4484L27.6333 13.4957L28.0471 13.9277C28.0421 13.9733 28.0367 14.019 28.031 14.0649L27.4596 18.0649C27.4596 18.3546 27.4436 18.6406 27.4125 18.922H12.0781C12.047 18.6406 12.031 18.3546 12.031 18.0649C12.031 18.0649 11.9994 17.4934 11.4279 14.0649C11.1705 12.5205 11.368 10.6056 12.2948 8.96737L12.2752 9.00811Z" fill="black"/>
<path fill-rule="evenodd" clip-rule="evenodd" d="M13.2346 12.1503C13.1862 10.7446 14.4068 9.62909 15.8025 9.80362L24.2047 10.8543C25.3816 11.0014 26.2504 12.0244 26.2051 13.2096L26.0576 17.0687C26.3063 16.9759 26.5755 16.9252 26.8566 16.9252C28.119 16.9252 29.1423 17.9486 29.1423 19.2109C29.1423 20.4733 28.119 21.4966 26.8566 21.4966C26.4974 21.4966 26.1575 21.4138 25.8551 21.2661C25.416 23.9986 23.0488 26.0674 20.2136 26.0674H19.2347C16.3952 26.0674 14.0266 23.9927 13.5917 21.2566C13.2844 21.4102 12.9378 21.4966 12.5709 21.4966C11.3085 21.4966 10.2852 20.4733 10.2852 19.2109C10.2852 17.9486 11.3085 16.9252 12.5709 16.9252C12.865 16.9252 13.1461 16.9808 13.4044 17.0819L13.2346 12.1503Z" fill="#FDCDC5"/>
<path d="M26.3057 18.2999C26.6374 17.7617 28.0012 17.9647 28.2076 18.8347" stroke="black" stroke-width="0.285714" stroke-linecap="round"/>
<path d="M26.5748 18.0823C26.9988 17.9104 27.5239 18.4806 27.313 18.9607" stroke="black" stroke-width="0.285714" stroke-linecap="round"/>
<path d="M13.1279 18.2999C12.7962 17.7617 11.4324 17.9647 11.226 18.8347" stroke="black" stroke-width="0.285714" stroke-linecap="round"/>
<path d="M12.8587 18.0823C12.4348 17.9104 11.9097 18.4806 12.1206 18.9607" stroke="black" stroke-width="0.285714" stroke-linecap="round"/>
<circle cx="16.5695" cy="17.2246" r="0.571429" fill="black"/>
<circle cx="22.8546" cy="17.2246" r="0.571429" fill="black"/>
<ellipse cx="22.6037" cy="14.665" rx="1.32267" ry="0.661333" transform="rotate(10 22.6037 14.665)" fill="black"/>
<ellipse rx="1.32267" ry="0.661333" transform="matrix(-0.984808 0.173648 0.173648 0.984808 16.2732 14.665)" fill="black"/>
<path d="M19.7125 18.6378C19.3316 19.114 18.9125 20.0664 20.284 20.0664" stroke="black" stroke-width="0.571429"/>
<path d="M17.8517 22.0117C18.1423 22.1869 18.6479 22.4023 19.63 22.4023C20.6121 22.4023 21.075 22.1942 21.4082 22.0117" stroke="black" stroke-width="0.285714" stroke-linecap="round"/>
<ellipse cx="19.6293" cy="23.0085" rx="0.305081" ry="0.163016" fill="#FBACA3"/>
<path opacity="0.04" fill-rule="evenodd" clip-rule="evenodd" d="M21.4084 26.006C21.135 26.0462 20.8554 26.067 20.571 26.067H18.8567C18.5744 26.067 18.2968 26.0465 18.0255 26.0069C18.0254 26.0027 18.0254 25.9985 18.0254 25.9943C18.0254 25.3354 18.7827 24.8013 19.7169 24.8013C20.6511 24.8013 21.4085 25.3354 21.4085 25.9943C21.4085 25.9982 21.4084 26.0021 21.4084 26.006Z" fill="#A3AED0"/>
<ellipse cx="24.1786" cy="19.3521" rx="1.42857" ry="1.14286" fill="#FBACA3"/>
<ellipse rx="1.42857" ry="1.14286" transform="matrix(1 0 0 -1 15.3836 19.3521)" fill="#FBACA3"/>
</g>
<defs>
<clipPath id="clip0_1416_20782">
<path d="M0.285156 20C0.285156 8.95431 9.23946 0 20.2852 0C31.3309 0 40.2852 8.95431 40.2852 20C40.2852 31.0457 31.3309 40 20.2852 40C9.23946 40 0.285156 31.0457 0.285156 20Z" fill="white"/>
</clipPath>
</defs>
</svg>
