<svg width="195" height="41" viewBox="0 0 195 41" fill="none" xmlns="http://www.w3.org/2000/svg">
<path d="M10 0.225586C4.47715 0.225586 0 4.70273 0 10.2256C0 15.7484 4.47715 20.2256 10 20.2256H20V10.2256C20 4.70273 15.5229 0.225586 10 0.225586Z" fill="#4318FF"/>
<path d="M0 10.2256C0 10.2256 0 10.2256 0 10.2256V30.2256C0 35.7484 4.47715 40.2256 10 40.2256C15.5228 40.2256 20 35.7484 20 30.2256L20 20.2256H10C4.47715 20.2256 3.91675e-06 15.7484 0 10.2256Z" fill="#A48FFF"/>
<path d="M40 10.2256C40 4.70273 35.5229 0.225586 30 0.225586C24.4772 0.225586 20 4.70273 20 10.2256V20.2256H30C35.5229 20.2256 40 15.7484 40 10.2256Z" fill="#A48FFF"/>
<path d="M20 10.2256V30.2256C20 35.7484 24.4772 40.2256 30 40.2256C35.5228 40.2256 40 35.7484 40 30.2256V10.2441C39.99 15.7584 35.5167 20.2256 30 20.2256H20L20 10.2256Z" fill="#4318FF"/>
<path d="M30 0.225586C30 0.225586 30 0.225586 30 0.225586V0.225586Z" fill="#4318FF"/>
<path d="M67.1726 3.65992H70.436V21.9021H66.4779V11.256L62.3 17.1244H60.091L55.9581 11.2066V21.9021H52V3.65992H55.2984L61.2005 12.6133L67.1726 3.65992Z" fill="#4318FF"/>
<path d="M82.8147 3.65992L90.236 21.9021H85.7382L84.3389 18.314H77.4173L76.068 21.9021H71.82L79.0415 3.65992H82.8147ZM82.9896 14.785L80.8157 9.1583L78.7417 14.785H82.9896Z" fill="#4318FF"/>
<path d="M104.43 16.6605C104.43 17.9931 104.072 19.079 103.355 19.918C102.656 20.7571 101.773 21.3658 100.707 21.7442C99.6404 22.1062 98.5492 22.2872 97.4331 22.2872C95.7506 22.2872 94.2097 21.9088 92.8104 21.152C91.4111 20.3787 90.4782 19.2682 90.0117 17.8204L93.4601 15.8708C93.8265 16.7099 94.3596 17.3597 95.0593 17.8204C95.7756 18.2811 96.6169 18.5114 97.583 18.5114C98.2994 18.5114 98.8741 18.3798 99.3072 18.1165C99.757 17.8368 99.9819 17.4338 99.9819 16.9073C99.9819 16.4795 99.8319 16.1258 99.5321 15.8461C99.2322 15.5664 98.8574 15.3361 98.4076 15.1551C97.9579 14.9742 97.3248 14.7685 96.5086 14.5382C95.3092 14.1927 94.3263 13.8472 93.56 13.5017C92.8104 13.1562 92.1607 12.6379 91.611 11.9469C91.0612 11.2395 90.7864 10.3182 90.7864 9.18297C90.7864 7.9326 91.1112 6.88789 91.7609 6.04883C92.4272 5.20976 93.2851 4.58458 94.3346 4.17327C95.4008 3.76197 96.5419 3.55631 97.758 3.55631C99.3572 3.55631 100.756 3.91826 101.956 4.64216C103.155 5.36606 103.93 6.39432 104.28 7.72695L100.781 9.67654C100.515 8.93619 100.098 8.36036 99.5321 7.94906C98.9824 7.53775 98.3077 7.3321 97.5081 7.3321C96.8251 7.3321 96.267 7.4884 95.8339 7.80099C95.4174 8.11358 95.2092 8.51666 95.2092 9.01022C95.2092 9.38863 95.3508 9.70944 95.634 9.97268C95.9339 10.2359 96.3003 10.4498 96.7335 10.6143C97.1666 10.7788 97.783 10.9845 98.5826 11.2313C99.8153 11.5932 100.815 11.9552 101.581 12.3171C102.347 12.6626 103.014 13.1891 103.58 13.8965C104.147 14.604 104.43 15.5253 104.43 16.6605Z" fill="#4318FF"/>
<path d="M115.539 3.65992L122.96 21.9021H118.463L117.063 18.314H110.142L108.792 21.9021H104.544L111.766 3.65992H115.539ZM115.714 14.785L113.54 9.1583L111.466 14.785H115.714Z" fill="#4318FF"/>
<path d="M142.389 16.6605C142.389 17.9931 142.031 19.079 141.314 19.918C140.615 20.7571 139.732 21.3658 138.666 21.7442C137.599 22.1062 136.508 22.2872 135.392 22.2872C133.71 22.2872 132.169 21.9088 130.769 21.152C129.37 20.3787 128.437 19.2682 127.971 17.8204L131.419 15.8708C131.786 16.7099 132.319 17.3597 133.018 17.8204C133.735 18.2811 134.576 18.5114 135.542 18.5114C136.258 18.5114 136.833 18.3798 137.266 18.1165C137.716 17.8368 137.941 17.4338 137.941 16.9073C137.941 16.4795 137.791 16.1258 137.491 15.8461C137.191 15.5664 136.816 15.3361 136.367 15.1551C135.917 14.9742 135.284 14.7685 134.468 14.5382C133.268 14.1927 132.285 13.8472 131.519 13.5017C130.769 13.1562 130.12 12.6379 129.57 11.9469C129.02 11.2395 128.745 10.3182 128.745 9.18297C128.745 7.9326 129.07 6.88789 129.72 6.04883C130.386 5.20976 131.244 4.58458 132.294 4.17327C133.36 3.76197 134.501 3.55631 135.717 3.55631C137.316 3.55631 138.716 3.91826 139.915 4.64216C141.114 5.36606 141.889 6.39432 142.239 7.72695L138.74 9.67654C138.474 8.93619 138.057 8.36036 137.491 7.94906C136.941 7.53775 136.267 7.3321 135.467 7.3321C134.784 7.3321 134.226 7.4884 133.793 7.80099C133.376 8.11358 133.168 8.51666 133.168 9.01022C133.168 9.38863 133.31 9.70944 133.593 9.97268C133.893 10.2359 134.259 10.4498 134.692 10.6143C135.126 10.7788 135.742 10.9845 136.542 11.2313C137.774 11.5932 138.774 11.9552 139.54 12.3171C140.306 12.6626 140.973 13.1891 141.539 13.8965C142.106 14.604 142.389 15.5253 142.389 16.6605Z" fill="#4318FF"/>
<path d="M153.723 21.0533C152.79 21.8759 151.474 22.2872 149.775 22.2872C148.259 22.2872 147.043 21.9005 146.127 21.1273C145.21 20.3376 144.752 18.9474 144.752 16.9566V12.5886H142.378V9.20765H144.752V5.11105H148.825V9.20765H152.773V12.5886H148.825V16.241C148.825 17.0636 148.95 17.7052 149.2 18.1659C149.45 18.6101 149.925 18.8322 150.624 18.8322C151.191 18.8322 151.749 18.643 152.299 18.2646L153.723 21.0533Z" fill="#4318FF"/>
<path d="M160.226 8.86216C162.091 8.86216 163.532 9.3804 164.549 10.4169C165.565 11.4369 166.073 12.8847 166.073 14.7603V18.3312V21.9021H162.351C162.351 21.2506 162.351 20.8163 162.351 20.5844C161.951 21.1602 161.592 21.5879 161.025 21.8676C160.459 22.1473 159.743 22.2872 158.876 22.2872C157.96 22.2872 157.119 22.1309 156.353 21.8183C155.603 21.4892 155.003 21.0286 154.553 20.4363C154.12 19.8276 153.904 19.1119 153.904 18.2893C153.904 17.4338 154.145 16.6852 154.628 16.0436C155.128 15.3855 155.795 14.8837 156.627 14.5382C157.46 14.1927 158.368 14.0199 159.351 14.0199C160.267 14.0199 161.167 14.1762 162.05 14.4888C161.933 12.8765 161.192 12.0703 159.826 12.0703C158.676 12.0703 157.844 12.5968 157.327 13.6498L154.454 11.9963C154.937 11.0256 155.678 10.2606 156.677 9.70122C157.694 9.14184 158.876 8.86216 160.226 8.86216ZM162.05 16.9813C161.4 16.8168 160.784 16.7345 160.201 16.7345C159.518 16.7345 158.976 16.8579 158.577 17.1047C158.177 17.3515 157.977 17.6805 157.977 18.0919C157.977 18.4703 158.127 18.7664 158.427 18.9803C158.726 19.1941 159.11 19.3011 159.576 19.3011C160.209 19.3011 160.775 19.1201 161.275 18.7582C161.792 18.3962 162.05 17.9109 162.05 17.3021V16.9813Z" fill="#4318FF"/>
<path d="M174.325 18.8075C174.825 18.8075 175.242 18.7006 175.575 18.4867C175.925 18.2564 176.233 17.9273 176.499 17.4996L179.573 19.2517C179.173 20.2389 178.498 20.9957 177.549 21.5221C176.599 22.0322 175.525 22.2872 174.325 22.2872C173.176 22.2872 172.085 22.0404 171.052 21.5468C170.036 21.0368 169.203 20.28 168.553 19.2764C167.92 18.2564 167.604 17.0225 167.604 15.5747C167.604 14.1269 167.92 12.9012 168.553 11.8976C169.203 10.8776 170.036 10.1208 171.052 9.62718C172.085 9.11717 173.176 8.86216 174.325 8.86216C175.525 8.86216 176.599 9.12539 177.549 9.65186C178.498 10.1619 179.173 10.9022 179.573 11.8729L176.499 13.6498C176.216 13.222 175.9 12.8929 175.55 12.6626C175.217 12.4323 174.809 12.3171 174.325 12.3171C173.559 12.3171 172.943 12.6215 172.476 13.2302C172.027 13.8225 171.802 14.604 171.802 15.5747C171.802 16.5453 172.027 17.3268 172.476 17.9769C172.943 18.5114 173.559 18.8075 174.325 18.8075Z" fill="#4318FF"/>
<path d="M189.643 14.2174L194.815 21.9021H189.968L186.919 17.2281L185.07 19.2271V21.9021H180.997V3.22559H185.07V14.3901L189.543 9.20765H194.216L189.643 14.2174Z" fill="#4318FF"/>
<path d="M60.618 26.1379H61.8199V36.1962H60.3522L60.3543 28.7618L57.2764 33.5723H56.397L53.4657 28.7618V36.1962H52V26.1379H53.2591L56.8367 31.8231L60.618 26.1379Z" fill="#4318FF"/>
<path d="M67.7208 28.8051C68.5845 28.8051 69.284 29.0602 69.8156 29.5704C70.3566 30.0807 70.6139 30.7947 70.6139 31.7502L70.6271 36.1962H69.368C69.368 35.7589 69.368 35.4591 69.368 35.2719C68.9203 35.9676 68.1582 36.342 67.1696 36.342C66.6846 36.342 66.2248 36.2588 65.8144 36.0825C65.4134 35.9063 65.0916 35.6512 64.8491 35.3172C64.6066 34.9832 64.4581 34.5556 64.4581 34.0825C64.4581 33.3683 64.7791 32.8265 65.3667 32.409C65.9543 31.9916 66.7051 31.7829 67.6192 31.7829C68.1321 31.7829 68.6591 31.8525 69.2001 31.9916V31.9638C69.2001 31.3051 69.0695 30.8228 68.8083 30.5166C68.5472 30.2012 68.1555 30.0435 67.6332 30.0435C67.2134 30.0435 66.859 30.1363 66.5699 30.3218C66.2901 30.4981 66.0522 30.7578 65.8564 31.1011L64.7931 30.4888C65.0263 29.9786 65.404 29.5704 65.9263 29.2643C66.4486 28.9582 67.0456 28.8051 67.7208 28.8051ZM69.2001 33.0769C68.6405 32.9378 68.1508 32.8682 67.7311 32.8682C67.1715 32.8682 66.7378 32.9749 66.43 33.1883C66.1222 33.4016 65.9683 33.6985 65.9683 34.0788C65.9683 34.422 66.0942 34.6957 66.346 34.8998C66.5979 35.0946 66.929 35.192 67.3394 35.192C67.8523 35.192 68.2907 35.0482 68.6544 34.7606C69.0182 34.4638 69.2001 34.0556 69.2001 33.5361V33.0769Z" fill="#4318FF"/>
<path d="M77.0627 31.9688L80.0672 36.1962H78.3044L76.1833 33.0621L74.8642 34.3571V36.1962H73.5451V26.1379H74.8642V32.5519L78.0386 28.9805H79.7594L77.0627 31.9688Z" fill="#4318FF"/>
<path d="M84.7197 28.8051C85.3539 28.8051 85.9089 28.9536 86.3846 29.2504C86.8602 29.538 87.2286 29.9369 87.4898 30.4471C87.751 30.948 87.8815 31.5139 87.8815 32.1447C87.8815 32.358 87.8582 32.6131 87.8116 32.91H82.7191C82.7751 33.6335 82.9989 34.1808 83.3906 34.5519C83.7824 34.9137 84.272 35.0946 84.8596 35.0946C85.6244 35.0946 86.1794 34.7792 86.5245 34.1484L87.6017 34.7745C87.4152 35.2755 87.0608 35.6651 86.5385 35.9434C86.0162 36.2124 85.401 36.342 84.7575 36.342C84.0953 36.342 83.5259 36.2031 82.9849 35.9155C82.444 35.6187 82.0103 35.1827 81.6838 34.6076C81.3667 34.0324 81.1666 33.3497 81.1666 32.5519C81.1666 31.7727 81.3667 31.0964 81.6838 30.5306C82.0103 29.9647 82.4393 29.538 82.9709 29.2504C83.5119 28.9536 84.0948 28.8051 84.7197 28.8051ZM84.6638 30.0575C84.1881 30.0575 83.773 30.2105 83.4186 30.5166C83.0735 30.8135 82.8543 31.2495 82.7611 31.8246H86.3706C86.3333 31.268 86.1607 30.8367 85.8529 30.5306C85.5451 30.2152 85.1488 30.0575 84.6638 30.0575Z" fill="#4318FF"/>
<path d="M98.0292 35.0528C98.6821 35.0528 99.2044 34.7513 99.5961 34.1484L100.701 34.7884C100.45 35.3079 100.09 35.6975 99.6241 35.9573C99.1671 36.217 98.6186 36.342 98.0217 36.342C97.3688 36.342 96.7934 36.1938 96.2524 35.8877C95.7115 35.5816 95.2825 35.1456 94.9653 34.5797C94.6482 34.0046 94.4897 33.3367 94.4897 32.576C94.4897 31.8153 94.6267 31.1498 94.9438 30.584C95.2609 30.0088 95.7115 29.5704 96.2524 29.2643C96.7934 28.9582 97.3688 28.8051 98.0217 28.8051C98.6186 28.8051 99.1671 28.935 99.6241 29.1948C100.09 29.4545 100.408 29.8458 100.66 30.3653L99.6339 30.9484C99.2422 30.3547 98.6821 30.1131 98.0292 30.1131C97.423 30.1131 96.9333 30.3358 96.5602 30.781C96.1872 31.217 95.9698 31.7913 95.9698 32.5519C95.9698 33.3219 96.1872 33.9536 96.5602 34.3988C96.9333 34.8348 97.423 35.0528 98.0292 35.0528Z" fill="#4318FF"/>
<path d="M106.481 28.8051C107.255 28.8051 107.875 29.0649 108.341 29.5844C108.817 30.0946 109.055 30.8274 109.055 31.7829V36.1962H107.614V32.2142C107.614 31.5463 107.488 31.0315 107.236 30.6697C106.984 30.3079 106.602 30.127 106.089 30.127C105.567 30.127 105.119 30.3126 104.746 30.6836C104.382 31.0454 104.2 31.5649 104.2 32.2421V36.1962H102.759V26.1379H104.2V30.0157C104.443 29.6168 104.76 29.3153 105.152 29.1113C105.553 28.9072 105.996 28.8051 106.481 28.8051Z" fill="#4318FF"/>
<path d="M114.775 28.8051C115.643 28.8051 116.342 29.0602 116.874 29.5704C117.415 30.0807 117.685 30.8135 117.685 31.769V36.1465H116.415C116.415 35.7092 116.415 35.4905 116.415 35.3033C115.968 35.999 115.204 36.3469 114.216 36.3469C113.731 36.3469 113.283 36.2588 112.873 36.0825C112.472 35.9063 112.15 35.6512 111.907 35.3172C111.665 34.9832 111.544 34.5797 111.544 34.1066C111.544 33.3923 111.837 32.8265 112.425 32.409C113.013 31.9916 113.763 31.7829 114.677 31.7829C115.19 31.7829 115.717 31.8525 116.258 31.9916V31.9638C116.258 31.3051 116.128 30.8228 115.867 30.5166C115.606 30.2012 115.214 30.0435 114.691 30.0435C114.272 30.0435 113.917 30.1363 113.628 30.3218C113.348 30.4981 113.111 30.7578 112.915 31.1011L111.851 30.4888C112.085 29.9786 112.462 29.5704 112.985 29.2643C113.507 28.9582 114.104 28.8051 114.775 28.8051ZM116.258 33.0769C115.699 32.9378 115.209 32.8682 114.789 32.8682C114.23 32.8682 113.796 32.9749 113.488 33.1883C113.181 33.4016 113.027 33.6985 113.027 34.0788C113.027 34.422 113.153 34.6957 113.404 34.8998C113.656 35.0946 113.987 35.192 114.398 35.192C114.911 35.192 115.349 35.0482 115.713 34.7606C116.077 34.4638 116.258 34.0556 116.258 33.5361V33.0769Z" fill="#4318FF"/>
<path d="M124.243 28.8051C125.027 28.8051 125.652 29.0602 126.118 29.5704C126.585 30.0807 126.748 30.8181 126.748 31.7829V36.1962H125.429V32.2142C125.429 31.5463 125.251 31.0315 124.999 30.6697C124.747 30.3079 124.365 30.127 123.852 30.127C123.329 30.127 122.882 30.3126 122.509 30.6836C122.145 31.0454 121.912 31.5649 121.912 32.2421V36.1962H120.593V28.9308H121.912C121.912 29.3681 121.912 29.5868 121.912 30.0241C122.154 29.5788 122.443 29.3756 122.844 29.153C123.255 28.9211 123.721 28.8051 124.243 28.8051Z" fill="#4318FF"/>
<path d="M136.204 28.9721V35.6372C136.204 37.0565 135.854 38.0677 135.154 38.6706C134.464 39.2829 133.634 39.589 132.664 39.589C131.918 39.589 131.256 39.4313 130.678 39.1159C130.109 38.8005 129.717 38.3599 129.502 37.794L130.636 37.14C130.999 37.9007 131.675 38.281 132.664 38.281C133.345 38.281 133.867 38.0723 134.231 37.6549C134.595 37.2467 134.777 36.551 134.777 35.5677V35.0807C134.516 35.5074 134.222 35.8274 133.811 36.0408C133.41 36.2448 132.972 36.3469 132.496 36.3469C131.927 36.3469 131.391 36.1985 130.887 35.9016C130.393 35.5955 129.992 35.1595 129.684 34.5936C129.386 34.0185 129.236 33.346 129.236 32.576C129.236 31.7968 129.386 31.1243 129.684 30.5584C129.992 29.9832 130.393 29.5473 130.887 29.2504C131.391 28.9536 131.927 28.8051 132.496 28.8051C132.972 28.8051 133.42 28.9165 133.839 29.1391C134.259 29.3617 134.663 29.5868 134.883 30.0241C134.883 29.5868 134.883 29.3681 134.883 28.9721H136.204ZM132.706 35.0667C133.275 35.0667 133.76 34.8627 134.161 34.4545C134.571 34.0463 134.777 33.4202 134.777 32.576C134.777 31.7411 134.571 31.1243 134.161 30.7254C133.76 30.3265 133.275 30.127 132.706 30.127C132.109 30.127 131.629 30.3404 131.265 30.7671C130.911 31.1938 130.733 31.7968 130.733 32.576C130.733 33.3645 130.911 33.9768 131.265 34.4127C131.629 34.8487 132.109 35.0667 132.706 35.0667Z" fill="#4318FF"/>
<path d="M142.237 28.8051C142.872 28.8051 143.427 28.9536 143.902 29.2504C144.378 29.538 144.746 29.9369 145.008 30.4471C145.269 30.948 145.399 31.5139 145.399 32.1447C145.399 32.358 145.376 32.6131 145.329 32.91H140.237C140.293 33.6335 140.517 34.1808 140.908 34.5519C141.3 34.9137 141.79 35.0946 142.377 35.0946C143.142 35.0946 143.697 34.7792 144.042 34.1484L145.119 34.7745C144.933 35.2755 144.578 35.6651 144.056 35.9434C143.534 36.2124 142.951 36.3469 142.307 36.3469C141.645 36.3469 141.044 36.2031 140.503 35.9155C139.962 35.6187 139.528 35.1827 139.202 34.6076C138.884 34.0324 138.726 33.346 138.726 32.5482C138.726 31.769 138.884 31.0964 139.202 30.5306C139.528 29.9647 139.957 29.538 140.489 29.2504C141.03 28.9536 141.613 28.8051 142.237 28.8051ZM142.181 30.0575C141.706 30.0575 141.291 30.2105 140.936 30.5166C140.591 30.8135 140.372 31.2495 140.279 31.8246H143.888C143.851 31.268 143.678 30.8367 143.371 30.5306C143.063 30.2152 142.666 30.0575 142.181 30.0575Z" fill="#4318FF"/>
<path d="M155.519 28.8051C156.153 28.8051 156.708 28.9536 157.184 29.2504C157.659 29.538 158.028 29.9369 158.289 30.4471C158.55 30.948 158.681 31.5139 158.681 32.1447C158.681 32.358 158.657 32.6131 158.611 32.91H153.518C153.574 33.6335 153.798 34.1808 154.19 34.5519C154.582 34.9137 155.071 35.0946 155.659 35.0946C156.424 35.0946 156.979 34.7792 157.324 34.1484L158.401 34.7745C158.214 35.2755 157.86 35.6651 157.338 35.9434C156.815 36.2124 156.232 36.3469 155.589 36.3469C154.927 36.3469 154.325 36.2031 153.784 35.9155C153.243 35.6187 152.81 35.1827 152.483 34.6076C152.166 34.0324 152.007 33.346 152.007 32.5482C152.007 31.769 152.166 31.0964 152.483 30.5306C152.81 29.9647 153.239 29.538 153.77 29.2504C154.311 28.9536 154.894 28.8051 155.519 28.8051ZM155.463 30.0575C154.987 30.0575 154.572 30.2105 154.218 30.5166C153.873 30.8135 153.654 31.2495 153.56 31.8246H157.17C157.133 31.268 156.96 30.8367 156.652 30.5306C156.344 30.2152 155.948 30.0575 155.463 30.0575Z" fill="#4318FF"/>
<path d="M163.91 28.8051C164.778 28.8051 165.477 29.0602 166.009 29.5704C166.55 30.0807 166.761 30.8179 166.761 31.7733V36.1465H165.442C165.442 35.7092 165.442 35.4905 165.442 35.2719C164.994 35.9676 164.339 36.3469 163.351 36.3469C162.866 36.3469 162.418 36.2588 162.008 36.0825C161.607 35.9063 161.285 35.6512 161.042 35.3172C160.8 34.9832 160.679 34.5797 160.679 34.1066C160.679 33.3923 160.972 32.8265 161.56 32.409C162.148 31.9916 162.898 31.7829 163.812 31.7829C164.325 31.7829 164.852 31.8525 165.393 31.9916V31.9638C165.393 31.3051 165.263 30.8228 165.002 30.5166C164.741 30.2012 164.349 30.0435 163.826 30.0435C163.407 30.0435 163.052 30.1363 162.763 30.3218C162.483 30.4981 162.246 30.7578 162.05 31.1011L160.986 30.4888C161.22 29.9786 161.597 29.5704 162.12 29.2643C162.642 28.9582 163.239 28.8051 163.91 28.8051ZM165.393 33.0769C164.834 32.9378 164.344 32.8682 163.924 32.8682C163.365 32.8682 162.931 32.9749 162.623 33.1883C162.316 33.4016 162.162 33.6985 162.162 34.0788C162.162 34.422 162.288 34.6957 162.539 34.8998C162.791 35.0946 163.122 35.192 163.533 35.192C164.046 35.192 164.484 35.0482 164.848 34.7606C165.212 34.4638 165.393 34.0556 165.393 33.5361V33.0769Z" fill="#4318FF"/>
<path d="M174.708 34.1066C174.708 34.7838 174.446 35.3265 173.924 35.7346C173.411 36.1428 172.74 36.3469 171.909 36.3469C171.173 36.3469 170.543 36.1892 170.021 35.8738C169.499 35.5584 169.149 35.1224 168.972 34.5658L170.049 33.9397C170.207 34.3293 170.445 34.6261 170.762 34.8302C171.079 35.025 171.462 35.1224 171.909 35.1224C172.311 35.1224 172.628 35.0435 172.861 34.8858C173.103 34.7189 173.225 34.4916 173.225 34.204C173.225 33.9814 173.15 33.8005 173.001 33.6614C172.861 33.5129 172.679 33.397 172.455 33.3135C172.241 33.23 171.942 33.1326 171.56 33.0213C171.056 32.8821 170.65 32.7476 170.343 32.6178C170.044 32.4879 169.783 32.2977 169.559 32.0473C169.345 31.7875 169.237 31.4443 169.237 31.0176C169.237 30.5723 169.359 30.1827 169.601 29.8487C169.853 29.5055 170.184 29.2458 170.594 29.0695C171.014 28.8933 171.476 28.8051 171.979 28.8051C172.642 28.8051 173.206 28.9489 173.672 29.2365C174.148 29.5241 174.465 29.9137 174.624 30.4053L173.546 31.0176C173.406 30.7115 173.197 30.4749 172.917 30.3079C172.646 30.1409 172.32 30.0575 171.937 30.0575C171.574 30.0575 171.28 30.1317 171.056 30.2801C170.832 30.4192 170.72 30.6233 170.72 30.8923C170.72 31.0964 170.786 31.2634 170.916 31.3933C171.056 31.5139 171.229 31.6159 171.434 31.6994C171.639 31.7736 171.928 31.8617 172.301 31.9638C172.805 32.1029 173.215 32.2421 173.532 32.3812C173.859 32.5204 174.134 32.7291 174.358 33.0074C174.591 33.2857 174.708 33.6521 174.708 34.1066Z" fill="#4318FF"/>
<path d="M177.701 27.8033C177.459 27.8033 177.249 27.7105 177.072 27.525C176.895 27.3395 176.806 27.1215 176.806 26.871C176.806 26.6205 176.895 26.4072 177.072 26.2309C177.249 26.0454 177.459 25.9526 177.701 25.9526C177.962 25.9526 178.182 26.0454 178.359 26.2309C178.536 26.4072 178.625 26.6205 178.625 26.871C178.625 27.1215 178.531 27.3395 178.345 27.525C178.168 27.7105 177.953 27.8033 177.701 27.8033ZM178.429 36.1962H176.874V28.9178H178.429V36.1962Z" fill="#4318FF"/>
<path d="M184.496 28.772C185.13 28.772 185.676 28.9536 186.151 29.2504C186.627 29.538 186.996 29.9369 187.257 30.4471C187.518 30.948 187.648 31.5139 187.648 32.1447C187.648 32.358 187.625 32.5568 187.578 32.8537H182.486C182.542 33.5772 182.766 34.1808 183.158 34.5519C183.549 34.9137 184.039 35.0946 184.626 35.0946C185.391 35.0946 185.946 34.7792 186.291 34.1484L187.369 34.7745C187.182 35.2755 186.828 35.6651 186.305 35.9434C185.783 36.2124 185.212 36.3522 184.569 36.3522C183.907 36.3522 183.293 36.2031 182.752 35.9155C182.211 35.6187 181.777 35.1827 181.451 34.6076C181.134 34.0324 180.975 33.3599 180.975 32.5621C180.975 31.7829 181.134 31.0964 181.451 30.5306C181.777 29.9647 182.206 29.538 182.738 29.2504C183.279 28.9536 183.871 28.772 184.496 28.772ZM184.431 30.0575C183.955 30.0575 183.54 30.2105 183.185 30.5166C182.84 30.8135 182.621 31.2495 182.528 31.8246H186.137C186.1 31.268 185.928 30.8367 185.62 30.5306C185.312 30.2152 184.916 30.0575 184.431 30.0575Z" fill="#4318FF"/>
<path d="M193.64 28.8051C193.883 28.8051 194.106 28.8376 194.312 28.9025C194.526 28.9675 194.694 29.0556 194.815 29.1669L194.27 30.294C194.055 30.1641 193.817 30.0992 193.556 30.0992C193.024 30.0992 192.591 30.3172 192.255 30.7532C191.929 31.1892 191.823 31.8409 191.823 32.648V36.1336H190.284V28.9178H191.603C191.603 29.3551 191.603 29.5868 191.603 30.0241C191.818 29.5788 192.166 29.3617 192.493 29.1391C192.829 28.9165 193.211 28.8051 193.64 28.8051Z" fill="#4318FF"/>
</svg>
