<svg width="40" height="40" viewBox="0 0 40 40" fill="none" xmlns="http://www.w3.org/2000/svg">
<g clip-path="url(#clip0_1416_20774)">
<path d="M0 20C0 8.95431 8.95431 0 20 0C31.0457 0 40 8.95431 40 20C40 31.0457 31.0457 40 20 40C8.95431 40 0 31.0457 0 20Z" fill="#E9EDF7"/>
<path d="M6.76525 36.4864C7.28664 29.3741 13.0134 27.2001 20.0011 27.2001C26.9889 27.2001 32.7156 29.3741 33.237 36.4864H33.2757V48.4031H6.72656V36.4864H6.76525Z" fill="#FF5252"/>
<path d="M16.8613 22.161H22.5671V27.1615C22.5671 28.7371 21.2898 30.0144 19.7142 30.0144C18.1386 30.0144 16.8613 28.7371 16.8613 27.1615V22.161Z" fill="#FDCDC5"/>
<path fill-rule="evenodd" clip-rule="evenodd" d="M22.5394 25.6764C21.8857 26.3501 21.0923 26.7448 20.2369 26.7448H19.0227C18.2403 26.7448 17.5098 26.4146 16.8906 25.8428V21.6875H22.5394V25.6764Z" fill="#FBACA3"/>
<path d="M12.8613 12.1824C12.8613 8.55546 15.8016 5.61523 19.4285 5.61523C23.0555 5.61523 25.9957 8.55546 25.9957 12.1824V13.7445V15.8658C25.9957 17.9068 24.9071 19.7929 23.1397 20.8138L21.7152 21.6367C20.3003 22.4541 18.5567 22.4541 17.1418 21.6367L15.7173 20.8138C13.9499 19.7929 12.8613 17.9068 12.8613 15.8658V13.7445V12.1824Z" fill="black"/>
<path fill-rule="evenodd" clip-rule="evenodd" d="M13.4286 13.6275C13.4286 10.7872 15.7311 8.48468 18.5714 8.48468H20.2857C23.126 8.48468 25.4286 10.7872 25.4286 13.6275V15.6476C25.7648 15.4531 26.1551 15.3418 26.5714 15.3418C27.8338 15.3418 28.8571 16.3652 28.8571 17.6275C28.8571 18.8899 27.8338 19.9133 26.5714 19.9133C26.1551 19.9133 25.7648 19.8019 25.4286 19.6075V19.7122C25.4286 21.6228 24.4737 23.407 22.884 24.4668L21.9643 25.0799C20.4288 26.1036 18.4283 26.1036 16.8928 25.0799L15.9731 24.4668C14.3834 23.407 13.4286 21.6228 13.4286 19.7122V19.6075C13.0924 19.8019 12.702 19.9133 12.2857 19.9133C11.0233 19.9133 10 18.8899 10 17.6275C10 16.3652 11.0233 15.3418 12.2857 15.3418C12.702 15.3418 13.0924 15.4531 13.4286 15.6476V13.6275Z" fill="#FDCDC5"/>
<path d="M25.7051 16.979C25.8788 16.3711 27.2466 16.1974 27.6808 16.979" stroke="black" stroke-width="0.285714" stroke-linecap="round"/>
<path d="M25.904 16.6965C26.2656 16.4163 26.9255 16.823 26.8524 17.3423" stroke="black" stroke-width="0.285714" stroke-linecap="round"/>
<path d="M13.1602 16.979C12.9865 16.3711 11.6187 16.1974 11.1844 16.979" stroke="black" stroke-width="0.285714" stroke-linecap="round"/>
<path d="M12.9612 16.6965C12.5996 16.4163 11.9398 16.823 12.0128 17.3423" stroke="black" stroke-width="0.285714" stroke-linecap="round"/>
<ellipse cx="23.428" cy="18.2857" rx="1.42857" ry="1.14286" transform="rotate(-28.5497 23.428 18.2857)" fill="#FBACA3"/>
<ellipse cx="14.8583" cy="18.286" rx="1.42857" ry="1.14286" fill="#FBACA3"/>
<path d="M13.5765 14.858C13.5765 14.6213 13.7683 14.4294 14.005 14.4294H18.5765C18.8131 14.4294 19.005 14.6213 19.005 14.858V16.0008C19.005 16.8687 18.3015 17.5723 17.4336 17.5723H15.1479C14.28 17.5723 13.5765 16.8687 13.5765 16.0008V14.858Z" stroke="black" stroke-width="0.285714"/>
<path d="M19.8616 14.858C19.8616 14.6213 20.0535 14.4294 20.2902 14.4294H24.8616C25.0983 14.4294 25.2902 14.6213 25.2902 14.858V16.0008C25.2902 16.8687 24.5866 17.5723 23.7188 17.5723H21.433C20.5652 17.5723 19.8616 16.8687 19.8616 16.0008V14.858Z" stroke="black" stroke-width="0.285714"/>
<rect x="19.1465" y="14.858" width="0.571429" height="0.571429" fill="black"/>
<rect x="25.4336" y="14.858" width="0.571429" height="0.571429" fill="black"/>
<rect x="12.8613" y="14.858" width="0.571429" height="0.571429" fill="black"/>
<circle cx="16.2902" cy="15.4286" r="0.571429" fill="black"/>
<circle cx="22.5753" cy="15.4286" r="0.571429" fill="black"/>
<ellipse cx="22.3617" cy="13.453" rx="1.32267" ry="0.661333" fill="black"/>
<ellipse rx="1.32267" ry="0.661333" transform="matrix(0.978731 0.205148 0.205148 -0.978731 15.9888 13.1958)" fill="black"/>
<path d="M19.5153 17.7146C19.1343 18.1908 18.7153 19.1432 20.0867 19.1432" stroke="black" stroke-width="0.571429"/>
<path d="M22.6239 20.9277C22.1323 21.2528 21.277 21.6524 19.6156 21.6524C17.9542 21.6524 17.1711 21.2664 16.6074 20.9277" stroke="black" stroke-width="0.285714" stroke-linecap="round"/>
<ellipse cx="19.6051" cy="22.7021" rx="0.482063" ry="0.275466" fill="#FBACA3"/>
</g>
<defs>
<clipPath id="clip0_1416_20774">
<path d="M0 20C0 8.95431 8.95431 0 20 0C31.0457 0 40 8.95431 40 20C40 31.0457 31.0457 40 20 40C8.95431 40 0 31.0457 0 20Z" fill="white"/>
</clipPath>
</defs>
</svg>
