<svg width="41" height="40" viewBox="0 0 41 40" fill="none" xmlns="http://www.w3.org/2000/svg">
<g clip-path="url(#clip0_1416_20784)">
<path d="M0.714844 20C0.714844 8.95431 9.66915 0 20.7148 0C31.7605 0 40.7148 8.95431 40.7148 20C40.7148 31.0457 31.7605 40 20.7148 40C9.66915 40 0.714844 31.0457 0.714844 20Z" fill="#FFF7E8"/>
<path d="M3.59302 38.4482C3.59302 32.4416 11.6761 26.7202 20.7161 26.7202C29.7561 26.7202 37.8392 31.7282 37.8392 38.4482H37.8892V49.3555H3.54297V38.4482H3.59302Z" fill="#FF9A2E"/>
<path d="M15.9883 21.7146H24.8687V26.4172C24.8687 28.8695 22.8808 30.8575 20.4285 30.8575C17.9762 30.8575 15.9883 28.8695 15.9883 26.4172V21.7146Z" fill="#FDCDC5"/>
<path fill-rule="evenodd" clip-rule="evenodd" d="M24.8249 23.6111C24.1672 25.856 22.6396 27.4291 20.86 27.4291H19.5671C18.1047 27.4291 16.8123 26.3667 16.0332 24.742V21.1434H24.8249V23.6111Z" fill="#FBACA3"/>
<path d="M12.3418 10.286C12.3418 7.44572 14.6443 5.14319 17.4847 5.14319H22.8027C25.6431 5.14319 27.9456 7.44572 27.9456 10.286V13.4289C27.9456 16.5848 25.3872 19.1432 22.2313 19.1432H18.0561C14.9002 19.1432 12.3418 16.5848 12.3418 13.4289V10.286Z" fill="black"/>
<path fill-rule="evenodd" clip-rule="evenodd" d="M13.5724 11.9135C13.5724 10.6512 14.5957 9.62781 15.8581 9.62781H24.4295C25.6919 9.62781 26.7152 10.6512 26.7152 11.9135V16.3623C27.293 15.9487 28.0153 15.8297 28.6473 16.1133C29.6528 16.5645 30.0489 17.864 29.5321 19.0157C29.0152 20.1674 27.7812 20.7353 26.7757 20.2841C26.7519 20.2734 26.7285 20.2623 26.7054 20.2507C26.531 23.2496 24.0437 25.6278 21.0009 25.6278H19.2867C16.2906 25.6278 13.8331 23.3221 13.5918 20.3883C12.6532 20.6175 11.6048 20.0537 11.139 19.0157C10.6221 17.864 11.0183 16.5645 12.0238 16.1133C12.5222 15.8896 13.0768 15.9164 13.5724 16.1406V11.9135Z" fill="#FDCDC5"/>
<ellipse cx="24.2327" cy="18.8141" rx="1.62545" ry="1.30036" transform="rotate(10.1328 24.2327 18.8141)" fill="#FBACA3"/>
<ellipse rx="1.62545" ry="1.30036" transform="matrix(-0.984403 0.17593 0.17593 0.984403 15.7478 18.8141)" fill="#FBACA3"/>
<path d="M14.2913 15.4286C14.2913 15.1919 14.4832 15 14.7199 15H19.2913C19.528 15 19.7199 15.1919 19.7199 15.4286V17.464C19.7199 18.3319 19.0163 19.0355 18.1484 19.0355H15.8627C14.9948 19.0355 14.2913 18.3319 14.2913 17.464V15.4286Z" stroke="black" stroke-width="0.285714"/>
<path d="M20.5765 15.4286C20.5765 15.1919 20.7683 15 21.005 15H25.5765C25.8131 15 26.005 15.1919 26.005 15.4286V17.464C26.005 18.3319 25.3015 19.0355 24.4336 19.0355H22.1479C21.28 19.0355 20.5765 18.3319 20.5765 17.464V15.4286Z" stroke="black" stroke-width="0.285714"/>
<rect x="19.8613" y="15.4286" width="0.571429" height="0.571429" fill="black"/>
<rect x="26.1484" y="15.4286" width="0.571429" height="0.571429" fill="black"/>
<rect x="13.5762" y="15.4286" width="0.571429" height="0.571429" fill="black"/>
<circle cx="17.005" cy="15.4286" r="0.571429" fill="black"/>
<circle cx="23.2902" cy="15.4286" r="0.571429" fill="black"/>
<ellipse cx="23.0766" cy="13.8179" rx="1.32267" ry="0.661333" fill="black"/>
<ellipse rx="1.32267" ry="0.661333" transform="matrix(0.954273 -0.298937 -0.298937 -0.954273 16.7032 13.4526)" fill="black"/>
<path d="M20.2301 17.7146C19.8492 18.1908 19.4301 19.1432 20.8015 19.1432" stroke="black" stroke-width="0.571429"/>
<rect x="18.4355" y="21.1432" width="3.41601" height="0.487242" rx="0.243621" fill="black"/>
<rect x="18.7246" y="21.4735" width="2.83941" height="0.840068" rx="0.420034" fill="#FBACA3"/>
<rect x="18.7246" y="20.4601" width="2.83941" height="0.840068" rx="0.420034" fill="#FBACA3"/>
<path d="M18.2497 4.1681L16.614 7.2196C16.09 6.66425 15.9529 5.81511 16.3335 5.10513C16.7141 4.39511 17.4971 4.03918 18.2497 4.1681Z" fill="black"/>
<path d="M19.0798 4.59276L17.7736 7.0296C17.3551 6.58612 17.2457 5.90801 17.5496 5.34105C17.8535 4.77405 18.4788 4.48981 19.0798 4.59276Z" fill="black"/>
<path d="M19.5622 4.92922L18.492 6.92565C18.1492 6.56232 18.0595 6.00676 18.3085 5.54226C18.5575 5.07774 19.0698 4.84487 19.5622 4.92922Z" fill="black"/>
<path d="M15.218 4.8059L16.3473 6.27735C16.5762 5.93831 16.575 5.47749 16.3123 5.13513C16.0495 4.79276 15.6046 4.67248 15.218 4.8059Z" fill="black"/>
<path d="M13.4199 17.5352C13.2674 17.0015 12.0666 16.849 11.6853 17.5352" stroke="black" stroke-width="0.285714" stroke-linecap="round"/>
<path d="M13.2457 17.2876C12.9282 17.0416 12.3489 17.3987 12.413 17.8546" stroke="black" stroke-width="0.285714" stroke-linecap="round"/>
<path d="M27.1641 17.5352C27.3165 17.0015 28.5174 16.849 28.8986 17.5352" stroke="black" stroke-width="0.285714" stroke-linecap="round"/>
<path d="M27.3383 17.2876C27.6558 17.0416 28.2351 17.3987 28.171 17.8546" stroke="black" stroke-width="0.285714" stroke-linecap="round"/>
</g>
<defs>
<clipPath id="clip0_1416_20784">
<path d="M0.714844 20C0.714844 8.95431 9.66915 0 20.7148 0C31.7605 0 40.7148 8.95431 40.7148 20C40.7148 31.0457 31.7605 40 20.7148 40C9.66915 40 0.714844 31.0457 0.714844 20Z" fill="white"/>
</clipPath>
</defs>
</svg>
