<svg width="41" height="40" viewBox="0 0 41 40" fill="none" xmlns="http://www.w3.org/2000/svg">
<g clip-path="url(#clip0_1416_20781)">
<path d="M0.429688 20C0.429688 8.95431 9.38399 0 20.4297 0C31.4754 0 40.4297 8.95431 40.4297 20C40.4297 31.0457 31.4754 40 20.4297 40C9.38399 40 0.429688 31.0457 0.429688 20Z" fill="#FFE4BA"/>
<path d="M11.1035 12.8575C11.1035 6.85747 14.075 5.14319 21.3386 5.14319C26.2619 5.14319 28.9324 8.59699 28.9324 12.8575L28.272 17.4289C28.272 17.7186 28.2536 18.0046 28.2176 18.286H11.8183C11.7823 18.0046 11.7638 17.7186 11.7638 17.4289L11.1035 12.8575Z" fill="black"/>
<path d="M0.238707 37.1352C1.03413 30.4272 9.77059 25.1432 20.4309 25.1432C31.0912 25.1432 39.8277 30.4272 40.6231 37.1352H40.6821V45.1409H0.179688V37.1352H0.238707Z" fill="#1B2559"/>
<path d="M15.2305 21.7146H25.0569V25.9443C25.0569 28.6577 22.8572 30.8575 20.1437 30.8575C17.4302 30.8575 15.2305 28.6577 15.2305 25.9443V21.7146Z" fill="#FDCDC5"/>
<path fill-rule="evenodd" clip-rule="evenodd" d="M25.0569 25.0309C24.0413 26.4915 22.4664 27.4291 20.6983 27.4291H19.0345C17.562 27.4291 16.2235 26.7788 15.2305 25.7177V21.1434H25.0569V25.0309Z" fill="#FBACA3"/>
<path d="M24.6965 13.1619C25.3409 15.0222 26.9445 16.1558 28.2782 15.6938C29.6119 15.2318 30.1708 13.3492 29.5264 11.4889C28.882 9.62859 26.371 5.8722 25.0373 6.33419C23.7036 6.79617 24.0521 11.3016 24.6965 13.1619Z" fill="black"/>
<path fill-rule="evenodd" clip-rule="evenodd" d="M15.0292 13.1614C14.3848 15.0217 12.7812 16.1553 11.4475 15.6933C11.2428 15.6224 11.0563 15.518 10.8897 15.3854L11.2296 15.016L11.0289 14.8313L10.6882 15.2016C10.6369 15.1482 10.5881 15.0918 10.5417 15.0325L11.0086 14.4008L10.7892 14.2386L10.378 14.795C9.87357 13.9625 9.77254 12.7206 10.1994 11.4884C10.8438 9.62809 13.3547 5.87100 14.6884 6.33369C16.0221 6.79568 15.6736 11.3011 15.0292 13.1614Z" fill="black"/>
<path fill-rule="evenodd" clip-rule="evenodd" d="M19.3556 8.48468C15.7263 8.48468 12.7842 11.4268 12.7842 15.0561V15.4324C12.5814 15.3734 12.3669 15.3418 12.1451 15.3418C10.8827 15.3418 9.85938 16.3652 9.85938 17.6275C9.85938 18.8899 10.8827 19.9133 12.1451 19.9133C12.3669 19.9133 12.5814 19.8817 12.7842 19.8227V19.9132C12.7842 22.8616 15.0171 25.2884 17.884 25.5949C18.2413 25.8318 18.9919 25.995 19.86 25.995C20.7284 25.995 21.4791 25.8317 21.8363 25.5947C24.7025 25.2875 26.9346 22.861 26.9346 19.9133V19.8227C27.1374 19.8817 27.3518 19.9133 27.5737 19.9133C28.836 19.9133 29.8594 18.8899 29.8594 17.6275C29.8594 16.3652 28.836 15.3418 27.5737 15.3418C27.3518 15.3418 27.1374 15.3734 26.9346 15.4324V15.0561C26.9346 11.4268 23.9924 8.48468 20.3631 8.48468H19.3556Z" fill="#FDCDC5"/>
<rect x="19.4707" y="21.5226" width="0.921462" height="0.639707" rx="0.319854" fill="#FBACA3"/>
<path d="M26.9551 17.0025C27.1288 16.3945 28.4966 16.2209 28.9308 17.0025" stroke="black" stroke-width="0.285714" stroke-linecap="round"/>
<path d="M27.154 16.7199C27.5156 16.4397 28.1755 16.8465 28.1024 17.3657" stroke="black" stroke-width="0.285714" stroke-linecap="round"/>
<path d="M12.7656 17.0025C12.5919 16.3945 11.2241 16.2209 10.7899 17.0025" stroke="black" stroke-width="0.285714" stroke-linecap="round"/>
<path d="M12.5667 16.7199C12.2051 16.4397 11.5452 16.8465 11.6183 17.3657" stroke="black" stroke-width="0.285714" stroke-linecap="round"/>
<ellipse cx="23.8577" cy="18.2857" rx="1.42857" ry="1.14286" transform="rotate(-28.5497 23.8577 18.2857)" fill="#FBACA3"/>
<ellipse cx="15.2879" cy="18.286" rx="1.42857" ry="1.14286" fill="#FBACA3"/>
<path d="M20.2913 15.3809C20.2913 14.6281 20.9016 14.0179 21.6543 14.0179H24.3568C25.1096 14.0179 25.7199 14.6281 25.7199 15.3809V15.7507C25.7199 17.2498 24.5046 18.465 23.0056 18.465C21.5065 18.465 20.2913 17.2498 20.2913 15.7507V15.3809Z" stroke="black" stroke-width="0.285714"/>
<path d="M14.0061 15.3809C14.0061 14.6281 14.6164 14.0179 15.3692 14.0179H18.0717C18.8244 14.0179 19.4347 14.6281 19.4347 15.3809V15.7507C19.4347 17.2498 18.2195 18.465 16.7204 18.465C15.2214 18.465 14.0061 17.2498 14.0061 15.7507V15.3809Z" stroke="black" stroke-width="0.285714"/>
<rect x="19.4395" y="14.8583" width="0.847804" height="0.571429" fill="black"/>
<rect x="25.7363" y="14.8583" width="1.24418" height="0.571429" fill="black"/>
<rect x="12.7656" y="14.8583" width="1.23319" height="0.571429" fill="black"/>
<circle cx="16.7199" cy="15.4286" r="0.571429" fill="black"/>
<circle cx="23.005" cy="15.4286" r="0.571429" fill="black"/>
<ellipse cx="22.7912" cy="13.4527" rx="1.32267" ry="0.661333" transform="rotate(10 22.7912 13.4527)" fill="black"/>
<ellipse rx="1.32267" ry="0.661333" transform="matrix(-0.984808 0.173648 0.173648 0.984808 16.4197 13.4527)" fill="black"/>
<path d="M19.945 17.7146C19.564 18.1908 19.145 19.1432 20.5164 19.1432" stroke="black" stroke-width="0.571429"/>
<path d="M21.6036 21.3998C21.3303 21.1693 20.8547 20.8861 19.9307 20.8861C19.0068 20.8861 18.5713 21.1597 18.2578 21.3998" stroke="black" stroke-width="0.285714" stroke-linecap="round"/>
<path d="M27.7923 13.4511C22.0669 13.5306 19.6019 10.4294 19.3633 7.40765L25.8043 7.96428C26.467 8.8655 27.7923 11.2245 27.7923 13.4511Z" fill="black"/>
<path d="M17.2912 8.48468C15.6524 9.19657 14.5599 11.5547 15.0068 12.845" stroke="black" stroke-width="0.571429" stroke-linecap="round"/>
<ellipse opacity="0.5" cx="19.86" cy="23.5735" rx="1.74473" ry="0.712725" fill="#FFECE8"/>
<rect x="20.3691" y="3.44867" width="7.1851" height="3.39955" rx="1.69978" transform="rotate(28.0705 20.3691 3.44867)" fill="black"/>
</g>
<defs>
<clipPath id="clip0_1416_20781">
<path d="M0.429688 20C0.429688 8.95431 9.38399 0 20.4297 0C31.4754 0 40.4297 8.95431 40.4297 20C40.4297 31.0457 31.4754 40 20.4297 40C9.38399 40 0.429688 31.0457 0.429688 20Z" fill="white"/>
</clipPath>
</defs>
</svg>
