<svg width="451" height="402" viewBox="0 0 451 402" fill="none" xmlns="http://www.w3.org/2000/svg">
<circle cx="32.4473" cy="364.435" r="25.5621" transform="rotate(16.5141 32.4473 364.435)" fill="#6946FF"/>
<path d="M36.5578 368.502C34.9926 368.038 33.9813 368.687 31.4127 367.926C28.844 367.164 28.3556 366.07 26.785 365.605C22.7384 364.405 18.482 366.715 17.2822 370.761L16.8683 372.157C16.4398 373.602 17.2647 375.123 18.7099 375.551L37.9066 381.243C39.3518 381.671 40.8719 380.846 41.3004 379.401L41.7143 378.005C42.9141 373.958 40.6044 369.702 36.5578 368.502ZM31.9301 366.181C36.2657 367.466 40.8261 364.991 42.1116 360.656C43.397 356.32 40.9223 351.76 36.5867 350.474C32.2511 349.189 27.6906 351.664 26.4052 355.999C25.1198 360.335 27.5945 364.895 31.9301 366.181Z" fill="white"/>
<path d="M75.2988 389.442L73.0551 388.68C65.0951 385.993 59.8415 384.223 58.0162 380.036C56.5289 376.624 58.0411 372.775 61.453 371.288C63.3805 370.447 65.6216 370.538 67.4472 371.43C68.0365 369.486 69.4954 367.782 71.4229 366.942C74.8348 365.454 78.6841 366.967 80.1714 370.378C81.9967 374.566 79.7176 379.619 76.2725 387.291L75.2988 389.442Z" fill="#FF5252"/>
<circle cx="185.316" cy="273.176" r="121.094" fill="#E2E7F3"/>
<rect x="246.674" y="381" width="34" height="6" fill="#FDCDC5"/>
<rect x="0.67392" y="0.5" width="450" height="171" rx="20" fill="white"/>
<rect x="24.6739" y="24.5" width="114.063" height="30.3333" rx="8" fill="#E9EDF7"/>
<rect x="24.6739" y="70.833" width="221.913" height="30.3333" rx="8" fill="#E9EDF7"/>
<rect x="24.6739" y="117.167" width="221.913" height="30.3333" rx="8" fill="#E9EDF7"/>
<rect x="270.587" y="24.5" width="156.087" height="123" rx="8" fill="#E9EDF7"/>
<rect opacity="0.18" x="307.419" y="37.8154" width="113.156" height="96.0709" rx="6.55738" transform="rotate(6 307.419 37.8154)" fill="#A3AED0"/>
<rect x="316.859" y="48.623" width="103.08" height="86.2961" rx="6.55738" transform="rotate(6 316.859 48.623)" fill="white"/>
<path d="M332.377 92.8691C324.881 92.4651 314.917 101.272 310.872 105.726L308.539 127.923C308.16 131.524 310.773 134.751 314.375 135.129L403.847 144.533C407.449 144.912 410.676 142.299 411.054 138.697L415.183 99.4127C410.906 95.2838 400.581 86.9359 393.499 86.5755C384.648 86.1251 372.272 104.261 363.346 104.523C354.419 104.784 341.746 93.374 332.377 92.8691Z" fill="#05CD99"/>
<circle cx="344.179" cy="72.5912" r="12.1521" transform="rotate(6 344.179 72.5912)" fill="#FFB547"/>
<path d="M384.6 149.014L417.259 180.237" stroke="#1B2559" stroke-width="2" stroke-linecap="round"/>
<path d="M390.687 145.237L406.478 160.187" stroke="#1B2559" stroke-width="2" stroke-linecap="round"/>
<path d="M337.715 122.701L357.935 131.993C362.77 134.214 365.187 135.325 365.857 137.505C366.527 139.684 365.151 141.961 362.398 146.515L348.9 168.848L317.222 159.384L337.715 122.701Z" fill="#FDCDC5"/>
<rect width="12.8355" height="47.3205" rx="6.41776" transform="matrix(-0.899288 -0.437358 -0.437358 0.899288 362.483 101.113)" fill="#FDCDC5"/>
<path d="M328.771 131.145C328.71 127.794 325.944 125.128 322.593 125.189C319.242 125.25 316.576 128.016 316.637 131.367L317.114 157.513C317.175 160.864 319.941 163.531 323.292 163.47C326.642 163.408 329.309 160.643 329.248 157.292L328.771 131.145Z" fill="#FDCDC5"/>
<path d="M348.125 131.709L349.963 128.364" stroke="black" stroke-width="1.29704"/>
<path d="M354.116 134.388L355.954 131.043" stroke="black" stroke-width="1.29704"/>
<path d="M359.829 137.118L361.667 133.773" stroke="black" stroke-width="1.29704"/>
<path d="M174.674 381H211.674L209.669 387H174.674V381Z" fill="#FDCDC5"/>
<path d="M282.674 230H231.674L168.819 381.377H282.674V230Z" fill="#1B2559"/>
<path d="M211.763 381.675L246.717 289.5V381.676L211.763 381.675Z" fill="#E9EDF7"/>
<rect width="51" height="46" transform="matrix(-1 0 0 1 282.674 184)" fill="#6946FF"/>
<path d="M317.104 157.31L348.895 168.782L333.584 201.132C329.709 209.321 327.771 213.415 324.165 215.698C320.558 217.982 316.029 217.982 306.969 217.982H262.997V183.522H295.191C297.841 183.522 299.166 183.522 300.273 182.91C301.381 182.299 302.086 181.177 303.498 178.934L317.104 157.31Z" fill="#6946FF"/>
<path d="M223.878 183.54H277.002V211.561C277.082 211.755 276.924 211.366 277.002 211.561H223.294V211.571C214.537 211.879 207.532 219.075 207.532 227.907C207.532 236.934 214.851 244.253 223.878 244.253V272.274C199.375 272.274 179.511 252.41 179.511 227.907C179.511 203.404 199.375 183.54 223.878 183.54Z" fill="#6946FF"/>
<path d="M262.675 233.854L223.576 238.119V272.242H258.5L262.675 233.854Z" fill="#FDCDC5"/>
<rect width="10.7728" height="26.4632" rx="5.38639" transform="matrix(-0.593643 0.804728 0.804728 0.593643 272.098 253.6)" fill="#FDCDC5"/>
<rect width="27.3024" height="62.5957" rx="13.6512" transform="matrix(0 -1 -1 0 299.7 267.603)" fill="#05CD99"/>
<path d="M268.237 253.69C268.237 254.684 268.052 255.564 267.683 256.33C267.315 257.096 266.789 257.686 266.108 258.102C265.431 258.513 264.658 258.718 263.79 258.718C262.921 258.718 262.151 258.52 261.479 258.123C260.806 257.721 260.281 257.149 259.903 256.407C259.529 255.665 259.333 254.813 259.315 253.851V253.277C259.315 252.278 259.497 251.397 259.861 250.636C260.23 249.871 260.755 249.28 261.437 248.865C262.123 248.449 262.903 248.241 263.776 248.241C264.639 248.241 265.41 248.447 266.087 248.858C266.764 249.268 267.289 249.854 267.662 250.615C268.041 251.372 268.232 252.24 268.237 253.221V253.69ZM265.737 253.263C265.737 252.25 265.566 251.482 265.225 250.959C264.889 250.431 264.406 250.167 263.776 250.167C262.543 250.167 261.892 251.092 261.822 252.941L261.815 253.69C261.815 254.689 261.981 255.457 262.312 255.994C262.643 256.531 263.136 256.799 263.79 256.799C264.411 256.799 264.889 256.536 265.225 256.008C265.562 255.48 265.732 254.722 265.737 253.732V253.263ZM272.971 254.782L271.962 255.889V258.578H269.504V248.381H271.962V252.877L272.817 251.582L275.016 248.381H278.055L274.61 252.891L278.055 258.578H275.142L272.971 254.782Z" fill="white"/>
<rect width="10.2956" height="10.1173" rx="5.05867" transform="matrix(-0.593643 0.804728 0.804728 0.593643 268.016 260.15)" fill="#FDCDC5"/>
<rect width="10.2956" height="10.1173" rx="5.05867" transform="matrix(-0.593643 0.804728 0.804728 0.593643 258.238 260.15)" fill="#FDCDC5"/>
<rect width="10.2956" height="10.1173" rx="5.05867" transform="matrix(-0.593643 0.804728 0.804728 0.593643 250.003 260.15)" fill="#FDCDC5"/>
<path d="M262.581 233.854L255.591 238.699C253.643 240.049 253.158 242.722 254.509 244.67L255.778 246.501C257.128 248.448 259.801 248.933 261.749 247.583L265.212 245.182C267.16 243.832 267.644 241.159 266.294 239.211L262.581 233.854Z" fill="#FDCDC5"/>
<path fill-rule="evenodd" clip-rule="evenodd" d="M257.998 237.03L258.685 238.036L256.285 239.699C254.889 240.666 254.542 242.581 255.509 243.976L254.509 244.67C253.159 242.722 253.643 240.049 255.591 238.699L257.998 237.03Z" fill="#1B2559"/>
<path d="M264.221 138.409C259.732 130.763 249.895 128.204 242.249 132.693C234.603 137.182 232.044 147.019 236.533 154.665L237.113 155.652C241.445 163.03 250.541 166.102 258.459 162.86L261.358 161.673C262.834 161.069 264.181 160.187 265.325 159.076C269.449 155.07 270.302 148.765 267.391 143.808L264.221 138.409Z" fill="#FDCDC5"/>
<rect width="16.9295" height="43.9849" rx="8.46473" transform="matrix(-0.980942 0.194298 0.194298 0.980942 256.873 145.495)" fill="#FDCDC5"/>
<path fill-rule="evenodd" clip-rule="evenodd" d="M251.008 130.416C250.338 135.865 247.496 142.151 242.732 147.786C242.426 148.148 242.117 148.502 241.804 148.849C241.564 149.273 241.427 149.763 241.427 150.285C241.427 151.897 242.733 153.204 244.345 153.204C244.745 153.204 245.126 153.123 245.472 152.978C245.244 155.642 244.27 158.536 242.644 161.429C237.81 158.215 234.51 152.388 234.51 146.464C234.51 137.598 241.697 130.41 250.564 130.41C250.712 130.41 250.86 130.412 251.008 130.416Z" fill="#1B2559"/>
<ellipse rx="4.08642" ry="3.50265" transform="matrix(-1 0 0 1 248.401 149.076)" fill="#FBACA3"/>
<path d="M257.626 135.057C257.814 133.9 258.371 132.972 259.075 133.378C259.779 133.783 259.85 134.22 260.054 135.873C260.299 137.864 264.905 135.855 266.425 136.388C269.982 137.633 268.183 141.928 265.519 142.098C259.376 142.489 257.225 137.522 257.626 135.057Z" fill="#FDCDC5"/>
<path d="M254.253 151.42C254.825 152.206 255.821 153.171 257.756 153.171C259.69 153.171 260.602 152.238 261.258 151.42" stroke="black" stroke-width="1.96299" stroke-linecap="round"/>
<circle r="1.75132" transform="matrix(-1 0 0 1 256.583 140.894)" fill="black"/>
<circle r="8.17285" transform="matrix(-1 0 0 1 242.873 129.54)" fill="#1B2559"/>
<ellipse rx="31.6067" ry="27.5676" transform="matrix(-1 0 0 1 210.376 145.583)" fill="#1B2559"/>
<path opacity="0.5" d="M219.064 132.426C218.319 129.077 211.745 130.069 212.737 134.162C210.132 131.061 207.527 136.271 210.132 137.139" stroke="#E9EDF7" stroke-width="0.981497"/>
<path opacity="0.5" d="M196.495 135.022C193.642 130.869 188.06 133.846 188.812 137.924" stroke="#E9EDF7" stroke-width="0.981497"/>
<path d="M246.728 384.136H298.728C300.937 384.136 302.728 385.927 302.728 388.136V389.888C302.728 392.097 300.937 393.888 298.728 393.888H252.728C249.414 393.888 246.728 391.202 246.728 387.888V384.136Z" fill="#05CD99"/>
<path d="M211.036 384.136H160.036C157.827 384.136 156.036 385.927 156.036 388.136V389.888C156.036 392.097 157.827 393.888 160.036 393.888H203.313C205.845 393.888 208.104 392.299 208.96 389.916L211.036 384.136Z" fill="#05CD99"/>
<path d="M224.19 217.539H223.866C218.147 217.539 213.511 222.175 213.511 227.894C213.511 233.396 217.803 237.896 223.222 238.229V272.244C199.022 271.9 179.511 252.175 179.511 227.894C179.511 203.397 199.37 183.539 223.866 183.539H225.691C246.622 183.539 264.166 198.037 268.831 217.539H224.222C224.211 217.539 224.201 217.539 224.19 217.539Z" fill="#6946FF"/>
</svg>
